<svg xmlns="http://www.w3.org/2000/svg" viewBox="0 0 512 512"><path d="M256 0C114.616 0 0 114.616 0 256c0 141.389 114.616 256 256 256 141.379 0 256-114.611 256-256C512 114.616 397.379 0 256 0z" fill="#324d5b"/><path d="M276.449 240.532c13.599 13.619 13.599 35.712 0 49.331-13.599 13.629-53.228 31.252-66.826 17.623-13.599-13.629 3.988-53.335 17.587-66.954 13.599-13.629 35.641-13.629 49.239 0z" fill="#efc75e"/><path d="M235.581 234.342l-.061 1.178c0 25.446 20.634 46.08 46.08 46.08l.988-.051c6.989-13.184 4.951-29.916-6.139-41.021-11.069-11.085-27.719-13.149-40.868-6.186z" fill="#deb957"/><path d="M7.506 317.573c24.346 98.575 105.774 174.612 207.227 191.063C208.993 402.079 120.791 317.44 12.8 317.44c-1.777 0-3.528.092-5.294.133z" fill="#26a6d1"/><g fill="#1795bf"><path d="M63.457 424.612c16.21-2.237 28.703-16.108 28.703-32.932 0-18.386-14.899-33.28-33.28-33.28-12.58 0-23.526 6.984-29.184 17.285 9.349 17.639 20.71 34.033 33.761 48.927z"/><circle cx="148.48" cy="430.08" r="20.48"/></g><path d="M76.805 30.73c-3.072 27.638-18.432 43.003-46.08 46.08 27.648 3.072 43.008 18.437 46.08 46.08 3.072-27.643 18.437-43.008 46.085-46.08-27.648-3.077-43.013-18.442-46.085-46.08zM368.64 378.89c-2.391 21.494-14.331 33.444-35.84 35.84 21.509 2.386 33.449 14.336 35.84 35.84 2.391-21.504 14.341-33.454 35.85-35.84-21.509-2.396-33.459-14.346-35.85-35.84z" fill="#efc75e"/><path d="M455.68 230.405c-1.7 15.355-10.24 23.895-25.6 25.605 15.36 1.7 23.9 10.24 25.6 25.595 1.71-15.355 10.24-23.895 25.6-25.595-15.36-1.71-23.89-10.25-25.6-25.605zM97.28 220.16c-1.367 12.283-8.192 19.118-20.48 20.48 12.288 1.367 19.113 8.197 20.48 20.48 1.367-12.278 8.192-19.108 20.48-20.48-12.283-1.362-19.113-8.197-20.48-20.48zm143.36 143.36c-1.705 15.36-10.24 23.9-25.6 25.605 15.36 1.705 23.895 10.245 25.6 25.6 1.705-15.355 10.24-23.895 25.6-25.6-15.36-1.705-23.89-10.245-25.6-25.605z" fill="#5b717c"/><path d="M347.94 164.055c41.692 41.697 50.038 100.951 10.419 140.575l-18.708 18.714c-39.619 39.613-12.18-55.424-53.878-97.121-41.692-41.697-136.735-14.259-97.111-53.878l18.714-18.714c39.618-39.614 98.861-31.268 140.564 10.424z" fill="#f26c4f"/><path d="M486.231 25.769c12.672 12.672 7.101 93.015-70.799 170.921-50.734 50.729-82.78 68.475-82.78 68.475-33.93 22.784-50.34 7.224-71.69-14.126-21.504-21.509-37.233-37.78-14.126-71.69 0 0 17.987-32.282 68.48-82.775 77.833-77.845 158.192-83.523 170.915-70.805z" fill="#f4f0d3"/><path d="M383.892 154.829c-7.178 0-13.932-2.796-19.011-7.875-10.481-10.481-10.47-27.535 0-38.016 5.079-5.074 11.832-7.869 19.011-7.869s13.932 2.796 19.011 7.869c5.079 5.079 7.869 11.832 7.869 19.011 0 7.178-2.79 13.932-7.869 19.005-5.079 5.074-11.832 7.875-19.011 7.875z" fill="#8ba0ab"/><path d="M383.892 104.909c6.149 0 11.94 2.396 16.292 6.743 4.362 4.357 6.748 10.138 6.748 16.297 0 6.154-2.391 11.94-6.748 16.292a22.89 22.89 0 0 1-16.292 6.748 22.88 22.88 0 0 1-16.292-6.748c-8.98-8.98-8.98-23.603 0-32.589 4.347-4.347 10.128-6.743 16.292-6.743m0-7.68c-7.859 0-15.729 2.995-21.719 8.996-12.001 12.001-12.001 31.452 0 43.448 5.99 5.996 13.86 8.996 21.719 8.996 7.859 0 15.718-3 21.719-8.996 12.001-11.996 12.001-31.447 0-43.448a30.63 30.63 0 0 0-21.719-8.996z" fill="#324d5b"/><path d="M143.36 419.84c11.31 0 20.48 9.17 20.48 20.48 0 1.239-.154 2.442-.364 3.62 3.374-3.656 5.484-8.494 5.484-13.86 0-11.31-9.17-20.48-20.48-20.48-10.071 0-18.401 7.286-20.116 16.86 3.742-4.045 9.052-6.62 14.996-6.62zM58.88 358.4c-12.6 0-23.48 7.06-29.128 17.388l1.085 2.12c5.965-5.709 14.008-9.267 22.922-9.267 18.381 0 33.28 14.894 33.28 33.28 0 3.292-.497 6.467-1.388 9.467 4.07-5.519 6.508-12.324 6.508-19.707.001-18.387-14.898-33.281-33.279-33.281z" fill="#1483a8"/><path d="M416.338 30.162c3.389 15.468 12.012 31.462 25.528 44.959 11.709 11.694 25.288 19.707 38.779 23.854 14.06-37.504 12.708-66.074 5.581-73.206-6.938-6.938-34.048-8.366-69.888 4.393z" fill="#f26c4f"/><path d="M348.278 254.751c-35.738 24.003-53.028 7.613-75.51-14.879-22.656-22.651-39.229-39.793-14.889-75.52 0 0 2.386-4.255 7.695-11.955-13.266 17.157-18.749 26.952-18.749 26.952-23.107 33.915-7.378 50.186 14.126 71.69 21.35 21.35 37.76 36.91 71.69 14.126 0 0 5.908-3.287 16.609-10.988l-.972.574z" fill="#dad3af"/><path d="M336.369 180.746c6.118 6.113-5.499 27.648-35.062 57.206-29.558 29.558-47.396 37.489-53.519 31.375-6.113-6.113 1.818-23.962 31.375-53.519s51.097-41.18 57.206-35.062z" fill="#f26c4f"/></svg>