<svg xmlns="http://www.w3.org/2000/svg" viewBox="0 0 58 58"><path fill="#f05565" d="M46.5 4v4h-7V4h-24v4h-7V4h-8v11h54V4z"/><path fill="#efebde" d="M8.5 15h-8v43h54V15h-39z"/><path d="M37.5 22h-29v29h38V22h-9zm-9 2h7v7h-7v-7zm7 16h-7v-7h7v7zm-16-7h7v7h-7v-7zm0-9h7v7h-7v-7zm-9 0h7v7h-7v-7zm0 9h7v7h-7v-7zm7 16h-7v-7h7v7zm9 0h-7v-7h7v7zm9 0h-7v-7h7v7zm9 0h-7v-7h7v7zm0-9h-7v-7h7v7zm-7-9v-7h7v7h-7z" fill="#d5d0bb"/><path fill="#36495e" d="M8.5 0h7v8h-7zm31 0h7v8h-7z"/><path fill="#7f6e5d" d="M19.5 33h7v7h-7z"/><circle cx="45.5" cy="45" r="12" fill="#26b999"/><path d="M52.071 39.179a.999.999 0 0 0-1.392.25l-5.596 8.04-3.949-3.242a.999.999 0 1 0-1.268 1.546l4.786 3.929a1.003 1.003 0 0 0 1.455-.201l6.214-8.929a1.002 1.002 0 0 0-.25-1.393z" fill="#fff"/></svg>