<svg xmlns="http://www.w3.org/2000/svg" viewBox="0 0 58 58"><path fill="#f05565" d="M46.5 4v4h-7V4h-24v4h-7V4h-8v11h54V4z"/><path fill="#efebde" d="M8.5 15h-8v43h54V15h-39z"/><path d="M37.5 22h-29v29h38V22h-9zm-9 2h7v7h-7v-7zm7 16h-7v-7h7v7zm-16-7h7v7h-7v-7zm0-9h7v7h-7v-7zm-9 0h7v7h-7v-7zm0 9h7v7h-7v-7zm7 16h-7v-7h7v7zm9 0h-7v-7h7v7zm9 0h-7v-7h7v7zm9 0h-7v-7h7v7zm0-9h-7v-7h7v7zm-7-9v-7h7v7h-7z" fill="#d5d0bb"/><path fill="#36495e" d="M8.5 0h7v8h-7zm31 0h7v8h-7z"/><path fill="#7f6e5d" d="M19.5 33h7v7h-7z"/><circle cx="45.5" cy="45" r="12" fill="#ed7161"/><path d="M46.914 45l3.536-3.536a.999.999 0 1 0-1.414-1.414L45.5 43.586l-3.536-3.536a.999.999 0 1 0-1.414 1.414L44.086 45l-3.536 3.536a.999.999 0 1 0 1.414 1.414l3.536-3.536 3.536 3.536a.997.997 0 0 0 1.414 0 .999.999 0 0 0 0-1.414L46.914 45z" fill="#fff"/></svg>