<svg xmlns="http://www.w3.org/2000/svg" viewBox="0 0 512 512"><path d="M256 0C114.616 0 0 114.616 0 256c0 141.389 114.616 256 256 256s256-114.611 256-256C512 114.616 397.384 0 256 0z" fill="#4681a0"/><path d="M143.36 163.835c-22.62 0-40.96 18.34-40.96 40.96s18.34 40.96 40.96 40.96 40.96-18.34 40.96-40.96-18.34-40.96-40.96-40.96zm107.52 112.64c-22.62 0-40.96 18.335-40.96 40.96s18.34 40.96 40.96 40.96 40.96-18.335 40.96-40.96-18.34-40.96-40.96-40.96zm107.52-112.64c-22.62 0-40.96 18.34-40.96 40.96s18.34 40.96 40.96 40.96 40.96-18.34 40.96-40.96-18.34-40.96-40.96-40.96z" fill="#3c6e89"/><path d="M363.52 107.515c5.652 0 10.24 4.588 10.24 10.24v276.48c0 5.652-4.588 10.24-10.24 10.24s-10.24-4.588-10.24-10.24v-276.48c0-5.653 4.588-10.24 10.24-10.24m-107.52 0c5.652 0 10.24 4.588 10.24 10.24v276.48c0 5.652-4.588 10.24-10.24 10.24s-10.24-4.588-10.24-10.24v-276.48c0-5.653 4.588-10.24 10.24-10.24m-107.52 0c5.652 0 10.24 4.588 10.24 10.24v276.48c0 5.652-4.588 10.24-10.24 10.24s-10.24-4.588-10.24-10.24v-276.48c0-5.653 4.588-10.24 10.24-10.24m215.04-10.24c-11.295 0-20.48 9.185-20.48 20.48v276.48c0 11.295 9.185 20.48 20.48 20.48S384 405.53 384 394.235v-276.48c0-11.295-9.185-20.48-20.48-20.48zm-107.52 0c-11.295 0-20.48 9.185-20.48 20.48v276.48c0 11.295 9.185 20.48 20.48 20.48s20.48-9.185 20.48-20.48v-276.48c0-11.295-9.185-20.48-20.48-20.48zm-107.52 0c-11.295 0-20.48 9.185-20.48 20.48v276.48c0 11.295 9.185 20.48 20.48 20.48s20.48-9.185 20.48-20.48v-276.48c0-11.295-9.185-20.48-20.48-20.48z" fill="#70a0ba"/><path d="M384 172.851a40.862 40.862 0 0 0-10.24-6.011v75.909a40.862 40.862 0 0 0 10.24-6.011v-63.887zm-40.96 69.898a40.732 40.732 0 0 0 10.24 2.652v-81.213a40.52 40.52 0 0 0-10.24 2.652v75.909zm-107.52 112.64a40.466 40.466 0 0 0 10.24 2.652v-81.213a40.466 40.466 0 0 0-10.24 2.652v75.909zm-66.56-182.543a40.875 40.875 0 0 0-10.24-6.006v75.909a40.845 40.845 0 0 0 10.24-6.006v-63.897zm107.52 112.645a40.862 40.862 0 0 0-10.24-6.011v75.909a40.712 40.712 0 0 0 10.24-6.011v-63.887zM128 242.749a40.677 40.677 0 0 0 10.24 2.652v-81.213A40.466 40.466 0 0 0 128 166.84v75.909z" fill="#628ca3"/><path d="M256 107.515c-5.652 0-10.24 4.588-10.24 10.24v276.48c0 5.652 4.588 10.24 10.24 10.24s10.24-4.588 10.24-10.24v-276.48c0-5.653-4.588-10.24-10.24-10.24zm107.52 0c-5.652 0-10.24 4.588-10.24 10.24v276.48c0 5.652 4.588 10.24 10.24 10.24s10.24-4.588 10.24-10.24v-276.48c0-5.653-4.588-10.24-10.24-10.24zm-215.04 0c-5.652 0-10.24 4.588-10.24 10.24v276.48c0 5.652 4.588 10.24 10.24 10.24s10.24-4.588 10.24-10.24v-276.48c0-5.653-4.588-10.24-10.24-10.24z" fill="#376b86"/><path d="M245.76 276.828v81.213c1.679.21 3.379.353 5.12.353 5.437 0 10.614-1.08 15.36-3.005V279.48a40.756 40.756 0 0 0-15.36-3.005c-1.741 0-3.441.143-5.12.353zm107.52-112.64v81.213c1.679.21 3.379.353 5.12.353 5.437 0 10.614-1.08 15.36-3.005V166.84a40.853 40.853 0 0 0-15.36-3.005c-1.741 0-3.441.143-5.12.353zm-215.04 0v81.213c1.679.21 3.384.353 5.12.353 5.437 0 10.614-1.08 15.36-3.005V166.84a40.853 40.853 0 0 0-15.36-3.005c-1.736 0-3.441.143-5.12.353z" fill="#305e75"/><path d="M148.48 107.515c-.891 0-1.736.148-2.56.364 4.408 1.142 7.68 5.115 7.68 9.876v276.48c0 4.767-3.272 8.735-7.68 9.882.824.21 1.669.358 2.56.358 5.652 0 10.24-4.588 10.24-10.24v-276.48c0-5.653-4.588-10.24-10.24-10.24zm215.04 0c-.891 0-1.736.148-2.56.364 4.408 1.142 7.68 5.115 7.68 9.876v276.48c0 4.767-3.272 8.735-7.68 9.882.824.21 1.669.358 2.56.358 5.652 0 10.24-4.588 10.24-10.24v-276.48c0-5.653-4.588-10.24-10.24-10.24zm-107.52 0c-.891 0-1.736.148-2.56.364 4.408 1.142 7.68 5.115 7.68 9.876v276.48c0 4.767-3.272 8.735-7.68 9.882.824.21 1.669.358 2.56.358 5.652 0 10.24-4.588 10.24-10.24v-276.48c0-5.653-4.588-10.24-10.24-10.24z" fill="#316078"/><path d="M373.76 242.749V166.84c-1.654-.671-3.369-1.208-5.12-1.664v79.237c1.751-.455 3.466-.993 5.12-1.664zm-107.52 112.64V279.48c-1.654-.671-3.369-1.208-5.12-1.659v79.232c1.751-.455 3.466-.993 5.12-1.664zm-107.52-112.64V166.84c-1.654-.671-3.369-1.208-5.12-1.664v79.237c1.751-.455 3.466-.993 5.12-1.664z" fill="#2d586e"/><path d="M148.48 158.715c-22.62 0-40.96 18.34-40.96 40.96s18.34 40.96 40.96 40.96 40.96-18.34 40.96-40.96-18.34-40.96-40.96-40.96zM256 271.355c-22.62 0-40.96 18.335-40.96 40.96s18.34 40.96 40.96 40.96 40.96-18.335 40.96-40.96-18.34-40.96-40.96-40.96zm107.52-112.64c-22.62 0-40.96 18.34-40.96 40.96s18.34 40.96 40.96 40.96 40.96-18.34 40.96-40.96-18.34-40.96-40.96-40.96z" fill="#ededed"/><path d="M148.48 184.315c-8.484 0-15.36 6.876-15.36 15.36 0 8.484 6.876 15.36 15.36 15.36s15.36-6.876 15.36-15.36c0-8.484-6.876-15.36-15.36-15.36zM256 296.955c-8.484 0-15.36 6.876-15.36 15.36s6.876 15.36 15.36 15.36c8.479 0 15.36-6.876 15.36-15.36s-6.881-15.36-15.36-15.36zm107.52-112.64c-8.479 0-15.36 6.876-15.36 15.36 0 8.484 6.881 15.36 15.36 15.36s15.36-6.876 15.36-15.36c0-8.484-6.881-15.36-15.36-15.36z" fill="#c3c3c3"/><path d="M148.48 158.715c-12.616 0-23.89 5.714-31.401 14.679 7.117-5.96 16.276-9.559 26.281-9.559 22.62 0 40.96 18.34 40.96 40.96 0 10.01-3.599 19.169-9.559 26.281 8.97-7.511 14.679-18.785 14.679-31.401 0-22.62-18.34-40.96-40.96-40.96zm215.04 0c-12.616 0-23.89 5.714-31.401 14.679 7.112-5.96 16.276-9.559 26.281-9.559 22.62 0 40.96 18.34 40.96 40.96 0 10.01-3.599 19.164-9.559 26.281 8.97-7.516 14.679-18.785 14.679-31.401 0-22.62-18.34-40.96-40.96-40.96zM256 271.355c-12.616 0-23.89 5.709-31.401 14.679 7.112-5.96 16.276-9.559 26.281-9.559 22.62 0 40.96 18.335 40.96 40.96 0 10.004-3.599 19.164-9.554 26.281 8.965-7.516 14.674-18.785 14.674-31.401 0-22.625-18.34-40.96-40.96-40.96z" fill="#fafbfc"/><path d="M153.6 235.515c-22.62 0-40.96-18.34-40.96-40.96 0-10.01 3.599-19.164 9.559-26.281-8.97 7.516-14.679 18.785-14.679 31.401 0 22.62 18.34 40.96 40.96 40.96 12.616 0 23.89-5.709 31.401-14.679-7.112 5.96-16.271 9.559-26.281 9.559zm215.04 0c-22.62 0-40.96-18.34-40.96-40.96 0-10.01 3.599-19.164 9.559-26.281-8.97 7.516-14.679 18.785-14.679 31.401 0 22.62 18.34 40.96 40.96 40.96 12.616 0 23.89-5.714 31.401-14.679-7.112 5.96-16.277 9.559-26.281 9.559zm-107.52 112.64c-22.62 0-40.96-18.335-40.96-40.96 0-10.004 3.599-19.164 9.559-26.281-8.97 7.516-14.679 18.785-14.679 31.401 0 22.625 18.34 40.96 40.96 40.96 12.616 0 23.89-5.709 31.406-14.679-7.117 5.96-16.276 9.559-26.286 9.559z" fill="#d6d6d6"/></svg>