<svg xmlns="http://www.w3.org/2000/svg" viewBox="0 0 58 58"><path fill="#f05565" d="M46.5 4v4h-7V4h-24v4h-7V4h-8v11h54V4z"/><path fill="#efebde" d="M8.5 15h-8v43h54V15h-39z"/><path d="M37.5 22h-29v29h38V22h-9zm-9 2h7v7h-7v-7zm7 16h-7v-7h7v7zm-16-7h7v7h-7v-7zm0-9h7v7h-7v-7zm-9 0h7v7h-7v-7zm0 9h7v7h-7v-7zm7 16h-7v-7h7v7zm9 0h-7v-7h7v7zm9 0h-7v-7h7v7zm9 0h-7v-7h7v7zm0-9h-7v-7h7v7zm-7-9v-7h7v7h-7z" fill="#d5d0bb"/><path fill="#36495e" d="M8.5 0h7v8h-7zm31 0h7v8h-7z"/><path fill="#7f6e5d" d="M19.5 33h7v7h-7z"/><path d="M47.5 45h-2c-3.633-1.453-6-4.861-6-8.64V33h14v3.36c0 3.779-2.367 7.187-6 8.64zm-2 0h2c3.633 1.453 6 4.861 6 8.64V57h-14v-3.36c0-3.779 2.367-7.187 6-8.64z" fill="#d0e8f9"/><path d="M36.5 34h20a1 1 0 1 0 0-2h-20a1 1 0 1 0 0 2zm19.999 21.998h-18l-.01.002H36.5a1 1 0 1 0 0 2h3l.01-.002h16.989a1 1 0 1 0 0-2z" fill="#556080"/></svg>