<svg xmlns="http://www.w3.org/2000/svg" viewBox="0 0 512 512"><path d="M256 0C114.616 0 0 114.616 0 256s114.616 256 256 256 256-114.616 256-256S397.384 0 256 0zm0 337.92c-45.24 0-81.92-36.675-81.92-81.92 0-45.24 36.68-81.92 81.92-81.92s81.92 36.68 81.92 81.92c0 45.245-36.68 81.92-81.92 81.92z" fill="#e89c25"/><path d="M256 0C114.616 0 0 114.616 0 256c0 16.814 1.669 33.234 4.767 49.147 16.783 7.624 35.364 14.234 51.553 37.893 35.825 52.362 80.686-14.28 81.92-51.2.855-25.626 22.702-35.395 35.999-38.984C175.903 209.08 211.82 174.08 256 174.08c45.24 0 81.92 36.68 81.92 81.92 0 9.912-1.848 19.359-5.069 28.155 16.399 5.018 33.597-6.267 35.789-17.915 4.147-22.067 22.39-40.049 71.68 30.72 32.819 47.124 58.25-4.46 71.572-36.864L512 256C512 114.616 397.384 0 256 0z" fill="#f8beb6"/><path d="M256.051 388.081c-35.098 0-70.211-17.813-92.129-45.041 17.219 35.579 51.999 61.46 92.129 61.46 40.141 0 74.921-25.882 92.134-61.46-21.918 27.223-57.026 45.041-92.134 45.041z" fill="#ebab45"/><path d="M255.928 49.654c63.918 0 127.872 30.479 168.986 77.45-33.137-58.158-96.374-97.495-168.986-97.495-72.607 0-135.844 39.337-168.98 97.495 41.119-46.971 105.062-77.45 168.98-77.45z" fill="#facec8"/><path d="M90.788 281.533c-2.816-4.787-9.057-6.42-13.937-3.661-4.879 2.76-6.548 8.873-3.732 13.655l15.304 25.974c2.816 4.782 9.057 6.42 13.937 3.661s6.554-8.873 3.732-13.655l-15.304-25.974zM209.597 27.305c-1.347-4.925-6.502-7.849-11.52-6.528l-27.259 7.173c-5.018 1.321-7.997 6.385-6.651 11.31s6.502 7.849 11.52 6.528l27.259-7.168c5.018-1.321 7.993-6.384 6.651-11.315z" fill="#e4776e"/><path d="M170.824 102.687l-30.126 8.033c-5.545 1.48-8.719 7.629-7.081 13.742 1.633 6.108 7.46 9.861 13.005 8.381l30.126-8.033c5.545-1.48 8.719-7.634 7.081-13.737-1.639-6.113-7.46-9.861-13.005-8.386zm223.334 40.632c-.01-5.668-4.572-10.266-10.189-10.26-5.622 0-10.168 4.593-10.168 10.266l.036 30.797c.005 5.668 4.567 10.266 10.189 10.26 5.622 0 10.173-4.598 10.163-10.266l-.031-30.797z" fill="#51b8da"/><path d="M486.011 222.351l-8.591-30.264c-1.582-5.571-7.639-8.878-13.537-7.383-5.893 1.495-9.395 7.219-7.813 12.79l8.581 30.269c1.582 5.571 7.639 8.873 13.542 7.383 5.898-1.495 9.395-7.219 7.818-12.795zM58.854 94.869c-5.228-3.118-11.75-1.541-14.577 3.517l-15.329 27.469c-2.821 5.059-.876 11.684 4.352 14.797 5.228 3.113 11.75 1.536 14.572-3.517l15.334-27.474c2.822-5.054.876-11.68-4.352-14.792zm243.405-1.296l-25.969 15.16c-4.787 2.79-6.38 9.057-3.558 13.988 2.821 4.936 8.98 6.676 13.763 3.886l25.969-15.16c4.782-2.79 6.374-9.057 3.558-13.988-2.821-4.941-8.981-6.676-13.763-3.886z" fill="#75c9ba"/><path d="M81.874 180.593c-4.879-2.76-11.116-1.121-13.937 3.661l-15.304 25.974c-2.816 4.787-1.147 10.895 3.732 13.66 4.879 2.76 11.121 1.121 13.937-3.661l15.304-25.979c2.822-4.777 1.147-10.891-3.732-13.655zM384.148 62.828l-26.061-15.36c-4.803-2.826-10.936-1.152-13.706 3.748-2.77 4.895-1.126 11.162 3.676 13.983l26.061 15.36c4.797 2.826 10.931 1.152 13.701-3.748 2.77-4.89 1.132-11.152-3.671-13.983z" fill="#f4f4f4"/><path d="M256 143.36c-56.556 0-102.4 45.844-102.4 102.4s45.844 102.4 102.4 102.4 102.4-45.844 102.4-102.4-45.844-102.4-102.4-102.4zm0 194.56c-45.24 0-81.92-36.675-81.92-81.92 0-45.24 36.68-81.92 81.92-81.92s81.92 36.68 81.92 81.92c0 45.245-36.68 81.92-81.92 81.92z" fill="#d08c21"/><path d="M256 484.767C119.183 484.767 7.45 377.436.369 242.386A254.784 254.784 0 0 0 0 256c0 141.384 114.616 256 256 256s256-114.616 256-256c0-4.572-.128-9.108-.364-13.619C504.556 377.436 392.817 484.767 256 484.767z" fill="#d69022"/><path d="M312.458 106.332l-25.969 15.16c-4.782 2.79-10.941 1.055-13.763-3.886-.507-.881-.819-1.812-1.044-2.749a10.469 10.469 0 0 0 1.044 7.869c2.821 4.936 8.98 6.676 13.763 3.886l25.969-15.16c3.932-2.294 5.652-6.927 4.603-11.244-.65 2.504-2.232 4.737-4.603 6.124zM63.206 104.54l-15.334 27.474c-2.821 5.053-9.344 6.63-14.572 3.517a11.535 11.535 0 0 1-5.294-7.188c-1.147 4.572.891 9.682 5.294 12.308 5.228 3.113 11.75 1.536 14.572-3.517l15.334-27.474c1.321-2.365 1.562-5.074.942-7.608-.215.855-.496 1.695-.942 2.488zm414.982 125.486c-5.898 1.49-11.96-1.812-13.542-7.383l-8.581-30.269-.01-.061c-.43 1.654-.492 3.415.01 5.181l8.581 30.269c1.582 5.571 7.639 8.873 13.542 7.383 5.878-1.49 9.37-7.178 7.828-12.733-.932 3.574-3.789 6.589-7.828 7.613z" fill="#64ab9e"/><path d="M176.748 119.685l-30.126 8.033c-5.545 1.48-11.372-2.273-13.005-8.381l-.113-.655c-.399 1.828-.42 3.794.113 5.775 1.633 6.108 7.46 9.861 13.005 8.381l30.126-8.033c5.35-1.423 8.443-7.199 7.194-13.082-.83 3.815-3.447 6.969-7.194 7.962zm207.278 59.576c-5.627 0-10.184-4.593-10.189-10.26l-.031-25.733-.005.056.036 30.797c.005 5.668 4.567 10.266 10.189 10.26 5.622 0 10.173-4.598 10.163-10.266l-.005-5.069c-.016 5.648-4.552 10.215-10.158 10.215z" fill="#459dba"/><path d="M387.82 71.701c-2.77 4.9-8.904 6.574-13.701 3.748l-26.061-15.36c-2.401-1.413-4.009-3.686-4.675-6.221-1.06 4.321.707 9.006 4.675 11.341l26.061 15.36c4.797 2.826 10.931 1.152 13.701-3.748a10.407 10.407 0 0 0 1.004-7.772c-.226.906-.523 1.802-1.004 2.652zM85.612 189.133l-15.304 25.979c-2.816 4.782-9.057 6.42-13.937 3.661a9.976 9.976 0 0 1-4.736-6.026 9.886 9.886 0 0 0 4.736 11.146c4.879 2.76 11.121 1.121 13.937-3.661l15.304-25.979a9.794 9.794 0 0 0 1.004-7.634c-.231.86-.533 1.71-1.004 2.514z" fill="#d3d3d3"/><path d="M102.354 316.047c-4.879 2.76-11.116 1.121-13.937-3.661l-15.304-25.974c-.476-.804-.778-1.654-1.004-2.509a9.778 9.778 0 0 0 1.004 7.629l15.304 25.974c2.816 4.782 9.057 6.42 13.937 3.661a9.877 9.877 0 0 0 4.736-11.146 9.987 9.987 0 0 1-4.736 6.026zM209.521 27.11a9.288 9.288 0 0 1-6.574 6.39l-27.259 7.168c-4.946 1.3-10.015-1.536-11.443-6.333-.456 1.556-.532 3.246-.077 4.925 1.347 4.925 6.502 7.849 11.52 6.528l27.259-7.168c5.018-1.321 7.997-6.385 6.651-11.315l-.077-.195z" fill="#c5675f"/><path d="M511.636 242.396a256.496 256.496 0 0 1-2.422 24.069 399.653 399.653 0 0 0 2.678-6.369L512 256c0-4.557-.128-9.083-.364-13.578v-.026zM1.101 279.306l.128 1.684a260.131 260.131 0 0 0 3.533 24.156l8.069 3.61C5.909 287.692 1.577 265.461.369 242.38A255.18 255.18 0 0 0 0 256c0 4.255.113 8.484.317 12.692.185 3.559.461 7.092.784 10.614zM256 143.36c-56.556 0-102.4 45.844-102.4 102.4 0 5.381.538 10.619 1.336 15.775 6.472-4.495 13.655-7.153 19.302-8.678C175.903 209.08 211.82 174.08 256 174.08c45.24 0 81.92 36.68 81.92 81.92 0 9.912-1.848 19.359-5.069 28.155 6.252 1.91 12.611 1.444 18.222-.497 4.675-11.735 7.327-24.499 7.327-37.898 0-56.555-45.844-102.4-102.4-102.4z" fill="#dfaba3"/><path d="M174.239 252.856c-13.297 3.589-35.144 13.358-35.999 38.984-1.234 36.92-46.095 103.562-81.92 51.2-16.189-23.66-34.77-30.269-51.553-37.893l1.106 5.54C22.656 318.31 40.131 324.5 56.32 348.16c35.825 52.362 80.686-14.28 81.92-51.2.855-25.626 22.492-35.405 35.789-38.994l.21-5.11zm337.653 7.24c-13.322 32.404-38.753 83.988-71.572 36.864-49.29-70.769-67.533-52.787-71.68-30.72-2.12 11.29-19.881 22.103-35.809 18.207-.481 1.597-1.352 3.164-1.92 4.721 16.399 5.012 35.538-6.159 37.729-17.807 4.147-22.067 22.39-40.049 71.68 30.72 32.819 47.124 58.25-4.46 71.572-36.864l.108-4.097-.067-2.581-.041 1.557z" fill="#d69022"/><path d="M174.08 256l.159-3.144c-5.652 1.526-12.831 4.183-19.302 8.678.236 1.521.394 3.067.696 4.562 6.205-4.157 12.984-6.671 18.396-8.131l.067-1.608-.016-.357zM14.792 314.685c-.696-1.956-1.311-3.948-1.961-5.929l-8.069-3.61.819 4.101.338 1.459 8.873 3.979zm318.039-30.238c-.297.978-.727 1.951-1.157 2.908l-.451 1.06-.317.748c5.888 1.802 12.124 1.49 17.812-.154.906-1.94 1.766-3.896 2.55-5.893-5.735 2.114-12.216 2.851-18.437 1.331zm179.102-25.907l-.041 1.556a451.993 451.993 0 0 1-2.678 6.369c-.415 2.816-.927 5.601-1.434 8.387 1.423-3.2 2.749-6.328 3.978-9.303.087-2.324.148-4.649.174-6.989l.001-.02z" fill="#bb7e1e"/></svg>