<svg id="Calque_1" data-name="Calque 1" xmlns="http://www.w3.org/2000/svg" viewBox="0 0 800 800"><defs><style>.cls-1,.cls-3,.cls-4{fill:none;}.cls-1,.cls-4{stroke:#000;}.cls-1{stroke-linecap:round;}.cls-1,.cls-2,.cls-3,.cls-4{stroke-miterlimit:10;}.cls-2,.cls-3{stroke:#231f20;}.cls-2,.cls-3,.cls-4{stroke-linecap:square;}</style></defs><title>Plan de travail 1</title><line class="cls-1" x1="2" y1="453.67" x2="372.62" y2="70.04"/><line class="cls-1" x1="372.62" y1="70.04" x2="800" y2="479.9"/><line class="cls-1" x1="173.25" y1="656.52" x2="800" y2="479.9"/><line class="cls-1" x1="2" y1="453.67" x2="173.25" y2="656.52"/><line class="cls-1" x1="800" y1="479.9" x2="686.38" y2="108.9"/><line class="cls-1" x1="372.62" y1="70.04" x2="686.38" y2="108.9"/><line class="cls-1" x1="693.66" y1="729.96" x2="686.38" y2="108.9"/><line class="cls-1" x1="2" y1="453.67" x2="686.38" y2="108.9"/><line class="cls-1" x1="2" y1="453.67" x2="693.66" y2="729.96"/><path class="cls-2" d="M325.58,307.75V283.54a49.11,49.11,0,1,0-98.21,0v49.1a49.07,49.07,0,0,0,49.1,49.11V357.2a24.54,24.54,0,0,1-24.55-24.56v-49.1a24.56,24.56,0,0,1,49.11,0v24.21Z"/><path class="cls-3" d="M301,332.3a24.72,24.72,0,0,1-24.56,24.9"/><path class="cls-3" d="M325.58,332.3a49.25,49.25,0,0,1-49.11,49.45"/><line class="cls-3" x1="301.03" y1="307.75" x2="301.03" y2="332.3"/><line class="cls-3" x1="325.58" y1="307.75" x2="325.58" y2="332.3"/><polyline class="cls-2" points="433 258.65 448.34 273.99 386.96 332.3 433 375.27 433 405.96 374.69 350.72 374.69 405.96 350.13 405.96 350.13 295.48 374.69 295.48 374.69 313.89 432.24 257.87"/><line class="cls-3" x1="350.13" y1="258.65" x2="350.13" y2="295.47"/><line class="cls-3" x1="374.69" y1="258.65" x2="350.13" y2="258.65"/><line class="cls-3" x1="374.69" y1="295.47" x2="374.69" y2="258.65"/><polygon class="cls-2" points="497.45 294.7 546.55 196.49 571.11 196.49 571.11 343.8 546.55 343.8 546.55 245.59 497.45 343.8 472.89 343.8 472.89 196.49 497.45 196.49 497.45 294.7"/><path class="cls-2" d="M595.66,331.87v24.21a49.11,49.11,0,1,0,98.21,0V307a49.08,49.08,0,0,0-49.11-49.11v24.55A24.55,24.55,0,0,1,669.32,307v49.1a24.56,24.56,0,0,1-49.11,0V331.87Z"/><path class="cls-3" d="M620.21,307.32a24.71,24.71,0,0,1,24.55-24.9"/><path class="cls-3" d="M595.66,307.32a49.25,49.25,0,0,1,49.1-49.45"/><line class="cls-3" x1="620.21" y1="331.87" x2="620.21" y2="307.32"/><line class="cls-3" x1="595.66" y1="331.87" x2="595.66" y2="307.32"/><path class="cls-2" d="M224.3,528.29V552.5a49.11,49.11,0,1,0,98.21,0V503.4a49.07,49.07,0,0,0-49.1-49.11v24.55A24.54,24.54,0,0,1,298,503.4v49.1a24.56,24.56,0,0,1-49.11,0V528.29Z"/><path class="cls-3" d="M248.85,503.74a24.72,24.72,0,0,1,24.56-24.9"/><path class="cls-3" d="M224.3,503.74a49.25,49.25,0,0,1,49.11-49.45"/><line class="cls-3" x1="248.85" y1="528.29" x2="248.85" y2="503.74"/><line class="cls-3" x1="224.3" y1="528.29" x2="224.3" y2="503.74"/><polyline class="cls-2" points="374.69 380.63 350.13 380.63 350.13 381.41 350.13 577.05 399.24 577.05 399.24 552.5 374.69 552.5 374.69 381.41"/><line class="cls-3" x1="448.34" y1="552.5" x2="399.24" y2="552.5"/><line class="cls-3" x1="448.34" y1="577.05" x2="399.24" y2="577.05"/><line class="cls-3" x1="448.34" y1="552.5" x2="448.34" y2="577.05"/><line class="cls-3" x1="472.9" y1="564.78" x2="472.9" y2="466.57"/><line class="cls-3" x1="497.45" y1="466.57" x2="472.9" y2="466.57"/><line class="cls-3" x1="497.45" y1="564.78" x2="497.45" y2="466.57"/><line class="cls-3" x1="472.9" y1="564.78" x2="497.45" y2="564.78"/><rect class="cls-2" x="472.9" y="405.19" width="24.55" height="49.11"/><polygon class="cls-2" points="620.21 601.61 546.55 601.61 546.55 503.4 620.21 503.4 620.21 478.84 522 478.84 522 626.16 620.21 626.16 620.21 601.61"/><line class="cls-3" x1="546.55" y1="540.22" x2="583.38" y2="540.22"/><line class="cls-3" x1="583.38" y1="564.78" x2="583.38" y2="540.22"/><line class="cls-3" x1="546.55" y1="564.78" x2="583.38" y2="564.78"/><line class="cls-3" x1="546.55" y1="540.22" x2="546.55" y2="564.78"/><path class="cls-3" d="M718.42,558.64c0,10.18-11,18.41-24.55,18.41"/><path class="cls-3" d="M718.42,558.64c0-10.18-11-18.42-24.55-18.42"/><path class="cls-3" d="M743,558.64c0-23.75-22-43-49.1-43"/><path class="cls-3" d="M743,558.64c0,23.75-22,43-49.1,43"/><path class="cls-3" d="M669.32,558.64c0,10.18,11,18.41,24.55,18.41"/><path class="cls-3" d="M641.69,558.64c0,23.75,23.34,43,52.18,43"/><line class="cls-3" x1="641.69" y1="558.64" x2="669.32" y2="558.64"/><path class="cls-2" d="M718.42,497.26c0-10.18-11-18.42-24.55-18.42s-24.55,8.24-24.55,18.42,11,18.41,24.55,18.41v24.55c-27.14,0-49.11-19.21-49.11-43s22-43,49.11-43,49.1,19.22,49.1,43Z"/><polygon class="cls-2" points="153.71 184.21 325.58 184.21 325.58 208.76 178.26 208.76 178.26 601.61 153.71 601.61 153.71 184.21"/><line class="cls-4" x1="178.26" y1="380.63" x2="227.37" y2="380.63"/><line class="cls-4" x1="227.37" y1="405.19" x2="227.37" y2="380.63"/><line class="cls-4" x1="178.26" y1="405.19" x2="227.37" y2="405.19"/></svg>