<svg xmlns="http://www.w3.org/2000/svg" xmlns:xlink="http://www.w3.org/1999/xlink" viewBox="0 0 799.75 366.67"><defs><style>.cls-1{fill:none;}.cls-2{clip-path:url(#clip-path);}.cls-3{fill:url(#linear-gradient);}.cls-4{fill:url(#linear-gradient-2);}.cls-5{fill:url(#linear-gradient-3);}.cls-6{fill:url(#linear-gradient-4);}.cls-7{fill:url(#linear-gradient-5);}.cls-8{fill:url(#linear-gradient-6);}.cls-9{fill:#e2d7d4;}.cls-10{fill:url(#linear-gradient-7);}.cls-11{fill:url(#linear-gradient-8);}.cls-12{fill:url(#linear-gradient-9);}.cls-13{fill:url(#linear-gradient-10);}.cls-14{fill:url(#linear-gradient-11);}.cls-15{fill:url(#linear-gradient-12);}.cls-16{fill:url(#linear-gradient-13);}.cls-17{fill:url(#linear-gradient-14);}.cls-18{fill:#5b4448;}.cls-19{fill:url(#linear-gradient-15);}.cls-20{fill:url(#linear-gradient-16);}.cls-21{fill:url(#linear-gradient-17);}.cls-22{fill:url(#linear-gradient-18);}.cls-23{fill:#45414e;}.cls-24{fill:#514457;}.cls-25{fill:url(#linear-gradient-19);}.cls-26{fill:url(#linear-gradient-20);}.cls-27{fill:url(#linear-gradient-21);}.cls-28{fill:url(#linear-gradient-22);}.cls-29{fill:#353535;}.cls-30{fill:url(#linear-gradient-23);}.cls-31{fill:#d2bccb;}.cls-32{fill:url(#linear-gradient-24);}.cls-33{fill:url(#linear-gradient-25);}.cls-34,.cls-36,.cls-83{fill:#78546b;stroke-miterlimit:10;}.cls-34{stroke:url(#linear-gradient-26);}.cls-35{fill:url(#linear-gradient-27);}.cls-36{stroke:url(#linear-gradient-28);}.cls-37{fill:#272738;}.cls-38{fill:#be95b1;}.cls-39{fill:url(#linear-gradient-29);}.cls-40{fill:#c79db0;}.cls-41{fill:url(#linear-gradient-30);}.cls-42{fill:url(#linear-gradient-31);}.cls-43{fill:url(#linear-gradient-32);}.cls-44{fill:url(#linear-gradient-33);}.cls-45{fill:url(#linear-gradient-34);}.cls-46{fill:url(#linear-gradient-35);}.cls-47{fill:url(#linear-gradient-36);}.cls-48{fill:url(#linear-gradient-37);}.cls-49{fill:url(#linear-gradient-38);}.cls-50{fill:url(#linear-gradient-39);}.cls-51{fill:url(#linear-gradient-40);}.cls-52{fill:url(#linear-gradient-41);}.cls-53{fill:url(#linear-gradient-42);}.cls-54{fill:url(#linear-gradient-43);}.cls-55{fill:url(#linear-gradient-44);}.cls-56{fill:url(#linear-gradient-45);}.cls-57{fill:url(#linear-gradient-46);}.cls-58{fill:#3d4c7c;}.cls-59{fill:url(#linear-gradient-47);}.cls-60{fill:url(#linear-gradient-48);}.cls-61{fill:url(#linear-gradient-49);}.cls-62{fill:url(#linear-gradient-50);}.cls-63{fill:url(#linear-gradient-51);}.cls-64{fill:#191926;}.cls-65{fill:url(#linear-gradient-52);}.cls-66{fill:url(#linear-gradient-53);}.cls-67{fill:url(#linear-gradient-54);}.cls-68{fill:url(#linear-gradient-55);}.cls-69{fill:url(#linear-gradient-56);}.cls-70{fill:#b66f69;}.cls-71{fill:url(#linear-gradient-57);}.cls-72{fill:url(#linear-gradient-58);}.cls-73{fill:#b5cbdd;}.cls-74{fill:url(#linear-gradient-59);}.cls-75{fill:url(#linear-gradient-60);}.cls-76{fill:url(#linear-gradient-61);}.cls-77{fill:#cbd5df;}.cls-78{fill:url(#linear-gradient-62);}.cls-79{fill:url(#linear-gradient-63);}.cls-80{fill:url(#linear-gradient-64);}.cls-81{fill:url(#linear-gradient-65);}.cls-82{fill:url(#linear-gradient-66);}.cls-83{stroke:url(#linear-gradient-67);}.cls-84{fill:url(#linear-gradient-68);}.cls-85{fill:url(#linear-gradient-69);}.cls-86{fill:#ead3e4;}.cls-87{fill:url(#linear-gradient-70);}.cls-88{fill:url(#linear-gradient-71);}.cls-89{fill:url(#linear-gradient-72);}.cls-90{fill:url(#linear-gradient-73);}.cls-91{fill:url(#linear-gradient-74);}.cls-92{fill:url(#linear-gradient-75);}.cls-93{fill:url(#linear-gradient-76);}.cls-94{fill:url(#linear-gradient-77);}.cls-95{fill:url(#linear-gradient-78);}.cls-96{fill:url(#linear-gradient-79);}.cls-97{fill:url(#linear-gradient-80);}.cls-98{fill:url(#linear-gradient-81);}.cls-99{fill:url(#linear-gradient-82);}.cls-100{fill:url(#linear-gradient-83);}.cls-101{fill:url(#linear-gradient-84);}.cls-102{fill:url(#linear-gradient-85);}.cls-103{fill:url(#linear-gradient-86);}.cls-104{fill:url(#linear-gradient-87);}.cls-105{fill:url(#linear-gradient-88);}.cls-106{fill:url(#linear-gradient-89);}.cls-107{fill:url(#linear-gradient-90);}.cls-108{fill:url(#linear-gradient-91);}.cls-109{fill:url(#linear-gradient-92);}.cls-110{fill:url(#linear-gradient-93);}.cls-111{fill:url(#linear-gradient-94);}.cls-112{fill:url(#linear-gradient-95);}.cls-113{fill:url(#linear-gradient-96);}.cls-114{fill:url(#linear-gradient-97);}.cls-115{fill:url(#linear-gradient-98);}</style><clipPath id="clip-path"><rect class="cls-1" width="799.75" height="366.67"/></clipPath><linearGradient id="linear-gradient" x1="296.57" y1="0.58" x2="296.57" y2="119.17" gradientUnits="userSpaceOnUse"><stop offset="0" stop-color="#e5d3cf"/><stop offset="0.4" stop-color="#e3d1cd"/><stop offset="0.56" stop-color="#decac8"/><stop offset="0.68" stop-color="#d4bebe"/><stop offset="0.78" stop-color="#c6acb0"/><stop offset="0.86" stop-color="#b3969e"/><stop offset="0.94" stop-color="#9d7a88"/><stop offset="1" stop-color="#845b6f"/></linearGradient><linearGradient id="linear-gradient-2" x1="339.21" y1="0.25" x2="339.21" y2="120.29" gradientUnits="userSpaceOnUse"><stop offset="0" stop-color="#e2d7d4"/><stop offset="0.35" stop-color="#e1d4d2"/><stop offset="0.57" stop-color="#ddcccd"/><stop offset="0.76" stop-color="#d6bdc4"/><stop offset="0.93" stop-color="#cca8b7"/><stop offset="1" stop-color="#c79db0"/></linearGradient><linearGradient id="linear-gradient-3" x1="357.17" y1="17.33" x2="357.17" y2="146.67" gradientUnits="userSpaceOnUse"><stop offset="0" stop-color="#b66f69"/><stop offset="0.23" stop-color="#a76665"/><stop offset="1" stop-color="#774b57"/></linearGradient><linearGradient id="linear-gradient-4" x1="470.75" y1="94.5" x2="512" y2="94.5" gradientUnits="userSpaceOnUse"><stop offset="0" stop-color="#a96b60"/><stop offset="0.11" stop-color="#a3685e"/><stop offset="1" stop-color="#734e51"/></linearGradient><linearGradient id="linear-gradient-5" x1="470.17" y1="158.5" x2="512" y2="158.5" gradientUnits="userSpaceOnUse"><stop offset="0" stop-color="#5b4448"/><stop offset="1" stop-color="#443337"/></linearGradient><linearGradient id="linear-gradient-6" x1="421.13" y1="63.93" x2="393.88" y2="79.65" gradientUnits="userSpaceOnUse"><stop offset="0" stop-color="#d5b8be"/><stop offset="0.33" stop-color="#d3b6bc"/><stop offset="0.52" stop-color="#ccaeb5"/><stop offset="0.67" stop-color="#c0a0a9"/><stop offset="0.8" stop-color="#af8c99"/><stop offset="0.91" stop-color="#997383"/><stop offset="1" stop-color="#845b6f"/></linearGradient><linearGradient id="linear-gradient-7" x1="423" y1="102.52" x2="451" y2="102.52" xlink:href="#linear-gradient-4"/><linearGradient id="linear-gradient-8" x1="402.16" y1="45.79" x2="423" y2="45.79" gradientUnits="userSpaceOnUse"><stop offset="0" stop-color="#845b6f"/><stop offset="0.09" stop-color="#997383"/><stop offset="0.2" stop-color="#af8c99"/><stop offset="0.33" stop-color="#c0a0a9"/><stop offset="0.48" stop-color="#ccaeb5"/><stop offset="0.67" stop-color="#d3b6bc"/><stop offset="1" stop-color="#d5b8be"/></linearGradient><linearGradient id="linear-gradient-9" x1="418.75" y1="46.04" x2="433.25" y2="46.04" xlink:href="#linear-gradient-2"/><linearGradient id="linear-gradient-10" x1="425.5" y1="39.04" x2="436.25" y2="39.04" xlink:href="#linear-gradient-8"/><linearGradient id="linear-gradient-11" x1="423" y1="78.42" x2="450.5" y2="78.42" xlink:href="#linear-gradient-3"/><linearGradient id="linear-gradient-12" x1="433.25" y1="37.54" x2="463" y2="37.54" xlink:href="#linear-gradient-2"/><linearGradient id="linear-gradient-13" x1="462.25" y1="42.92" x2="490.75" y2="42.92" xlink:href="#linear-gradient-2"/><linearGradient id="linear-gradient-14" x1="448.13" y1="27.42" x2="448.13" y2="58.42" xlink:href="#linear-gradient-6"/><linearGradient id="linear-gradient-15" x1="450.5" y1="75.04" x2="490.75" y2="75.04" xlink:href="#linear-gradient-5"/><linearGradient id="linear-gradient-16" x1="580.85" y1="37.52" x2="552.19" y2="66.19" xlink:href="#linear-gradient-6"/><linearGradient id="linear-gradient-17" x1="489.25" y1="76.08" x2="570.67" y2="76.08" xlink:href="#linear-gradient-5"/><linearGradient id="linear-gradient-18" x1="616.08" y1="28.17" x2="616.08" y2="144.17" gradientUnits="userSpaceOnUse"><stop offset="0" stop-color="#e2d7d4"/><stop offset="1" stop-color="#e5d3cf"/></linearGradient><linearGradient id="linear-gradient-19" x1="378.73" y1="151.29" x2="427.67" y2="151.29" xlink:href="#linear-gradient-5"/><linearGradient id="linear-gradient-20" x1="190.67" y1="80" x2="240.33" y2="80" xlink:href="#linear-gradient-2"/><linearGradient id="linear-gradient-21" x1="161.67" y1="80.67" x2="216.33" y2="80.67" xlink:href="#linear-gradient"/><linearGradient id="linear-gradient-22" x1="100.5" y1="110.92" x2="161.67" y2="110.92" xlink:href="#linear-gradient-2"/><linearGradient id="linear-gradient-23" x1="209.88" y1="148.04" x2="179.63" y2="178.29" gradientUnits="userSpaceOnUse"><stop offset="0" stop-color="#774b57"/><stop offset="0.77" stop-color="#a76665"/><stop offset="1" stop-color="#b66f69"/></linearGradient><linearGradient id="linear-gradient-24" x1="301" y1="233.67" x2="344" y2="233.67" gradientUnits="userSpaceOnUse"><stop offset="0" stop-color="#a77d9e"/><stop offset="0.41" stop-color="#a47b9b"/><stop offset="0.67" stop-color="#9c7593"/><stop offset="0.9" stop-color="#8d6b85"/><stop offset="1" stop-color="#83647b"/></linearGradient><linearGradient id="linear-gradient-25" x1="321.7" y1="183.99" x2="367.62" y2="263.53" gradientUnits="userSpaceOnUse"><stop offset="0" stop-color="#be95b1"/><stop offset="0.34" stop-color="#bb93af"/><stop offset="0.57" stop-color="#b38ca7"/><stop offset="0.76" stop-color="#a47f99"/><stop offset="0.93" stop-color="#8f6e86"/><stop offset="1" stop-color="#83647b"/></linearGradient><linearGradient id="linear-gradient-26" x1="294.94" y1="257.1" x2="344.81" y2="257.1" gradientUnits="userSpaceOnUse"><stop offset="0" stop-color="#78546b"/><stop offset="0.11" stop-color="#7b5970"/><stop offset="0.46" stop-color="#816178"/><stop offset="1" stop-color="#83647b"/></linearGradient><linearGradient id="linear-gradient-27" x1="313.75" y1="277.17" x2="313.75" y2="355.17" gradientUnits="userSpaceOnUse"><stop offset="0" stop-color="#845b6f"/><stop offset="1" stop-color="#83647b"/></linearGradient><linearGradient id="linear-gradient-28" x1="248.04" y1="324.28" x2="296.37" y2="324.28" gradientUnits="userSpaceOnUse"><stop offset="0" stop-color="#83647b"/><stop offset="0.54" stop-color="#816178"/><stop offset="0.89" stop-color="#7b5970"/><stop offset="1" stop-color="#78546b"/></linearGradient><linearGradient id="linear-gradient-29" x1="599.67" y1="104.58" x2="661.5" y2="104.58" gradientUnits="userSpaceOnUse"><stop offset="0" stop-color="#d1b7bc"/><stop offset="1" stop-color="#e5d3cf"/></linearGradient><linearGradient id="linear-gradient-30" x1="652.04" y1="110.87" x2="692.9" y2="118.07" gradientUnits="userSpaceOnUse"><stop offset="0" stop-color="#845b6f"/><stop offset="0.07" stop-color="#916c7c"/><stop offset="0.26" stop-color="#af919a"/><stop offset="0.45" stop-color="#c7aeb1"/><stop offset="0.64" stop-color="#d8c2c2"/><stop offset="0.82" stop-color="#e2cfcc"/><stop offset="1" stop-color="#e5d3cf"/></linearGradient><linearGradient id="linear-gradient-31" x1="696.5" y1="105.29" x2="735.5" y2="105.29" xlink:href="#linear-gradient"/><linearGradient id="linear-gradient-32" x1="725.75" y1="105.29" x2="743" y2="105.29" xlink:href="#linear-gradient-2"/><linearGradient id="linear-gradient-33" x1="628.67" y1="193.58" x2="691.75" y2="193.58" xlink:href="#linear-gradient-18"/><linearGradient id="linear-gradient-34" x1="661.5" y1="122.33" x2="715.91" y2="122.33" xlink:href="#linear-gradient-5"/><linearGradient id="linear-gradient-35" x1="696.5" y1="131.5" x2="765.67" y2="131.5" xlink:href="#linear-gradient-5"/><linearGradient id="linear-gradient-36" x1="715.67" y1="181.5" x2="763.33" y2="181.5" xlink:href="#linear-gradient"/><linearGradient id="linear-gradient-37" x1="765.38" y1="164.03" x2="786.73" y2="164.03" xlink:href="#linear-gradient-3"/><linearGradient id="linear-gradient-38" x1="760.08" y1="158.75" x2="735.08" y2="183.75" gradientUnits="userSpaceOnUse"><stop offset="0" stop-color="#e5d3cf"/><stop offset="0.18" stop-color="#e2cfcc"/><stop offset="0.36" stop-color="#d8c2c2"/><stop offset="0.55" stop-color="#c7aeb1"/><stop offset="0.74" stop-color="#af919a"/><stop offset="0.93" stop-color="#916c7c"/><stop offset="1" stop-color="#845b6f"/></linearGradient><linearGradient id="linear-gradient-39" x1="65.5" y1="125.67" x2="100.5" y2="125.67" xlink:href="#linear-gradient-2"/><linearGradient id="linear-gradient-40" x1="65.5" y1="145.17" x2="100.5" y2="145.17" xlink:href="#linear-gradient-6"/><linearGradient id="linear-gradient-41" x1="97.5" y1="165.03" x2="153" y2="165.03" xlink:href="#linear-gradient-3"/><linearGradient id="linear-gradient-42" x1="0" y1="161.92" x2="69" y2="161.92" xlink:href="#linear-gradient"/><linearGradient id="linear-gradient-43" x1="65.5" y1="161.92" x2="98" y2="161.92" xlink:href="#linear-gradient"/><linearGradient id="linear-gradient-44" x1="-0.5" y1="204.92" x2="69" y2="204.92" gradientUnits="userSpaceOnUse"><stop offset="0" stop-color="#464376"/><stop offset="1" stop-color="#3b3b66"/></linearGradient><linearGradient id="linear-gradient-45" x1="54.25" y1="282.92" x2="109.25" y2="227.92" gradientUnits="userSpaceOnUse"><stop offset="0" stop-color="#423e5d"/><stop offset="1" stop-color="#302d51"/></linearGradient><linearGradient id="linear-gradient-46" x1="98" y1="231.08" x2="214.83" y2="231.08" gradientUnits="userSpaceOnUse"><stop offset="0" stop-color="#4e5189"/><stop offset="1" stop-color="#46436c"/></linearGradient><linearGradient id="linear-gradient-47" x1="152.5" y1="322.42" x2="249" y2="322.42" xlink:href="#linear-gradient-45"/><linearGradient id="linear-gradient-48" x1="152.5" y1="345.42" x2="250.09" y2="345.42" gradientUnits="userSpaceOnUse"><stop offset="0" stop-color="#36364c"/><stop offset="1" stop-color="#272738"/></linearGradient><linearGradient id="linear-gradient-49" x1="-0.5" y1="289.92" x2="129.67" y2="289.92" xlink:href="#linear-gradient-46"/><linearGradient id="linear-gradient-50" x1="108.67" y1="313.92" x2="152.5" y2="313.92" xlink:href="#linear-gradient-46"/><linearGradient id="linear-gradient-51" x1="129.67" y1="344.92" x2="240" y2="344.92" xlink:href="#linear-gradient-45"/><linearGradient id="linear-gradient-52" x1="128.17" y1="375.21" x2="240" y2="375.21" gradientUnits="userSpaceOnUse"><stop offset="0" stop-color="#46436c"/><stop offset="1" stop-color="#4e5189"/></linearGradient><linearGradient id="linear-gradient-53" x1="735.5" y1="119.79" x2="766.75" y2="119.79" xlink:href="#linear-gradient-4"/><linearGradient id="linear-gradient-54" x1="743" y1="114.5" x2="768.67" y2="114.5" xlink:href="#linear-gradient"/><linearGradient id="linear-gradient-55" x1="766.33" y1="113.83" x2="800" y2="113.83" xlink:href="#linear-gradient-2"/><linearGradient id="linear-gradient-56" x1="766.33" y1="140.25" x2="800" y2="140.25" xlink:href="#linear-gradient-4"/><linearGradient id="linear-gradient-57" x1="385.97" y1="330.96" x2="430.99" y2="408.94" gradientUnits="userSpaceOnUse"><stop offset="0" stop-color="#445d9b"/><stop offset="0.01" stop-color="#455f9c"/><stop offset="0.16" stop-color="#5271a6"/><stop offset="0.33" stop-color="#5b7ead"/><stop offset="0.55" stop-color="#6086b1"/><stop offset="1" stop-color="#6288b2"/></linearGradient><linearGradient id="linear-gradient-58" x1="377.37" y1="360.04" x2="290.62" y2="446.79" gradientUnits="userSpaceOnUse"><stop offset="0" stop-color="#445d9b"/><stop offset="0.48" stop-color="#4e74a9"/><stop offset="1" stop-color="#5889b5"/></linearGradient><linearGradient id="linear-gradient-59" x1="685.67" y1="398.17" x2="800.5" y2="398.17" gradientUnits="userSpaceOnUse"><stop offset="0" stop-color="#90a5c0"/><stop offset="0.49" stop-color="#8ea3bf"/><stop offset="0.69" stop-color="#899cba"/><stop offset="0.84" stop-color="#7f90b2"/><stop offset="0.96" stop-color="#717ea6"/><stop offset="1" stop-color="#6b77a1"/></linearGradient><linearGradient id="linear-gradient-60" x1="363.33" y1="118.67" x2="363.33" y2="209.66" xlink:href="#linear-gradient-4"/><linearGradient id="linear-gradient-61" x1="428.83" y1="137.67" x2="428.83" y2="209.66" gradientUnits="userSpaceOnUse"><stop offset="0" stop-color="#b3bad0"/><stop offset="0.17" stop-color="#a9b3cc"/><stop offset="1" stop-color="#7995b7"/></linearGradient><linearGradient id="linear-gradient-62" x1="502.88" y1="22.42" x2="502.88" y2="62.17" xlink:href="#linear-gradient"/><linearGradient id="linear-gradient-63" x1="529.96" y1="34.67" x2="529.96" y2="84.67" xlink:href="#linear-gradient"/><linearGradient id="linear-gradient-64" x1="488" y1="167.71" x2="557" y2="167.71" xlink:href="#linear-gradient-3"/><linearGradient id="linear-gradient-65" x1="489.33" y1="94.98" x2="537.67" y2="94.98" xlink:href="#linear-gradient-23"/><linearGradient id="linear-gradient-66" x1="148" y1="166.67" x2="179" y2="166.67" xlink:href="#linear-gradient-4"/><linearGradient id="linear-gradient-67" x1="343.77" y1="356.68" x2="343.77" y2="228.39" xlink:href="#linear-gradient-28"/><linearGradient id="linear-gradient-68" x1="228.5" y1="245" x2="228.5" y2="350.67" gradientUnits="userSpaceOnUse"><stop offset="0" stop-color="#a77d9e"/><stop offset="0.47" stop-color="#94708c"/><stop offset="1" stop-color="#83647b"/></linearGradient><linearGradient id="linear-gradient-69" x1="179" y1="236.17" x2="295.5" y2="236.17" xlink:href="#linear-gradient-24"/><linearGradient id="linear-gradient-70" x1="247" y1="297.92" x2="295.5" y2="297.92" xlink:href="#linear-gradient-24"/><linearGradient id="linear-gradient-71" x1="65.08" y1="396.67" x2="65.08" y2="319.67" xlink:href="#linear-gradient-45"/><linearGradient id="linear-gradient-72" x1="-3" y1="375.22" x2="142.5" y2="375.22" xlink:href="#linear-gradient-46"/><linearGradient id="linear-gradient-73" x1="570.67" y1="114.42" x2="661.5" y2="114.42" xlink:href="#linear-gradient-5"/><linearGradient id="linear-gradient-74" x1="609.25" y1="156.17" x2="609.25" y2="248.17" xlink:href="#linear-gradient-59"/><linearGradient id="linear-gradient-75" x1="541.08" y1="147.54" x2="628.67" y2="147.54" xlink:href="#linear-gradient-5"/><linearGradient id="linear-gradient-76" x1="541.08" y1="188.13" x2="661.5" y2="188.13" xlink:href="#linear-gradient-23"/><linearGradient id="linear-gradient-77" x1="475.83" y1="167.17" x2="389.67" y2="253.33" gradientUnits="userSpaceOnUse"><stop offset="0" stop-color="#564646"/><stop offset="0.25" stop-color="#5e4a4e"/><stop offset="0.65" stop-color="#755565"/><stop offset="1" stop-color="#8e617e"/></linearGradient><linearGradient id="linear-gradient-78" x1="660.67" y1="277.08" x2="733.33" y2="277.08" gradientUnits="userSpaceOnUse"><stop offset="0" stop-color="#845b6f"/><stop offset="0.06" stop-color="#9d7a88"/><stop offset="0.14" stop-color="#b3969e"/><stop offset="0.22" stop-color="#c6acb0"/><stop offset="0.32" stop-color="#d4bebe"/><stop offset="0.44" stop-color="#decac8"/><stop offset="0.6" stop-color="#e3d1cd"/><stop offset="1" stop-color="#e5d3cf"/></linearGradient><linearGradient id="linear-gradient-79" x1="691.75" y1="277.08" x2="764.67" y2="277.08" xlink:href="#linear-gradient-5"/><linearGradient id="linear-gradient-80" x1="628.67" y1="182.08" x2="691.75" y2="182.08" xlink:href="#linear-gradient-30"/><linearGradient id="linear-gradient-81" x1="662" y1="184.29" x2="721.33" y2="184.29" xlink:href="#linear-gradient-3"/><linearGradient id="linear-gradient-82" x1="537.42" y1="208.08" x2="488.58" y2="256.92" xlink:href="#linear-gradient-61"/><linearGradient id="linear-gradient-83" x1="562.5" y1="299.67" x2="733.33" y2="299.67" xlink:href="#linear-gradient-59"/><linearGradient id="linear-gradient-84" x1="283.5" y1="314.17" x2="409.5" y2="314.17" xlink:href="#linear-gradient-46"/><linearGradient id="linear-gradient-85" x1="360.5" y1="309.42" x2="415" y2="309.42" gradientUnits="userSpaceOnUse"><stop offset="0" stop-color="#6b77a1"/><stop offset="1" stop-color="#5a5a82"/></linearGradient><linearGradient id="linear-gradient-86" x1="454.25" y1="323.17" x2="454.25" y2="263.67" gradientUnits="userSpaceOnUse"><stop offset="0" stop-color="#90a5c0"/><stop offset="1" stop-color="#6b77a1"/></linearGradient><linearGradient id="linear-gradient-87" x1="415" y1="322.5" x2="512.01" y2="322.5" gradientUnits="userSpaceOnUse"><stop offset="0" stop-color="#6288b2"/><stop offset="0.01" stop-color="#6288b2"/><stop offset="0.33" stop-color="#5a89b4"/><stop offset="1" stop-color="#5889b5"/></linearGradient><linearGradient id="linear-gradient-88" x1="499" y1="288.75" x2="600" y2="288.75" gradientUnits="userSpaceOnUse"><stop offset="0" stop-color="#7094be"/><stop offset="0" stop-color="#7094be"/><stop offset="0.2" stop-color="#75a1c3"/><stop offset="0.46" stop-color="#78a9c6"/><stop offset="1" stop-color="#79abc7"/></linearGradient><linearGradient id="linear-gradient-89" x1="490.83" y1="360.83" x2="553.67" y2="298" gradientUnits="userSpaceOnUse"><stop offset="0" stop-color="#79abc7"/><stop offset="0.92" stop-color="#7196bf"/><stop offset="1" stop-color="#7094be"/></linearGradient><linearGradient id="linear-gradient-90" x1="415" y1="366.92" x2="511.75" y2="366.92" xlink:href="#linear-gradient-88"/><linearGradient id="linear-gradient-91" x1="454.08" y1="207.33" x2="454.08" y2="273.17" xlink:href="#linear-gradient-85"/><linearGradient id="linear-gradient-92" x1="564.96" y1="412.01" x2="603.02" y2="346.08" gradientUnits="userSpaceOnUse"><stop offset="0" stop-color="#90a5c0"/><stop offset="0.37" stop-color="#7d8db0"/><stop offset="0.72" stop-color="#707da5"/><stop offset="1" stop-color="#6b77a1"/></linearGradient><linearGradient id="linear-gradient-93" x1="721.1" y1="251.33" x2="763.67" y2="251.33" xlink:href="#linear-gradient-5"/><linearGradient id="linear-gradient-94" x1="763.33" y1="227.33" x2="800.67" y2="227.33" xlink:href="#linear-gradient-4"/><linearGradient id="linear-gradient-95" x1="763.67" y1="293.34" x2="800.67" y2="293.34" xlink:href="#linear-gradient-5"/><linearGradient id="linear-gradient-96" x1="733.33" y1="309.83" x2="800.67" y2="309.83" xlink:href="#linear-gradient-4"/><linearGradient id="linear-gradient-97" x1="488" y1="146" x2="570.67" y2="146" xlink:href="#linear-gradient-5"/><linearGradient id="linear-gradient-98" x1="230.5" y1="85.5" x2="323.94" y2="178.94" xlink:href="#linear-gradient-5"/></defs><title>Mesa de trabajo 1</title><g class="cls-2"><polygon class="cls-3" points="268.11 60.59 314.43 0.58 325.04 119.17 268.11 60.59"/><polygon class="cls-4" points="313.75 0.25 364.67 17.33 324.38 120.29 313.75 0.25"/><polygon class="cls-5" points="364.67 17.33 325 118.67 389.33 146.67 364.67 17.33"/><polygon class="cls-6" points="489.33 61.34 470.75 109.42 512 127.67 489.33 61.34"/><polygon class="cls-7" points="470.17 108.83 488 208.16 512 127.67 470.17 108.83"/><polygon class="cls-8" points="423 67.17 364.67 18.5 399.33 84.17 427.67 138.17 423 67.17"/><polygon class="cls-9" points="424.83 68.5 393.83 16.17 366.5 19.83 424.83 68.5"/><polygon class="cls-10" points="423 66.67 427.42 138.36 451 109 423 66.67"/><polygon class="cls-11" points="402.16 30.47 418.75 25.42 423 66.17 402.16 30.47"/><polygon class="cls-12" points="418.75 25.42 433.25 47.67 423 66.67 418.75 25.42"/><polygon class="cls-13" points="425.5 35.67 436.25 30.42 433.25 47.67 425.5 35.67"/><polygon class="cls-14" points="433.25 47.67 450.5 109.17 423 66.67 433.25 47.67"/><polygon class="cls-15" points="436.25 30.42 463 27.42 433.25 47.67 436.25 30.42"/><polygon class="cls-16" points="463 27.42 490.75 40.92 462.25 58.42 463 27.42"/><polygon class="cls-17" points="433.25 47.67 462.25 58.42 463 27.42 433.25 47.67"/><polygon class="cls-18" points="433.25 47.67 450.39 109.77 463.17 58.5 433.25 47.67"/><polygon class="cls-19" points="462.25 58.42 490.75 40.92 450.5 109.17 462.25 58.42"/><polygon class="cls-9" points="546.75 34.67 515.75 23.17 489.25 62.17 546.75 34.67"/><polygon class="cls-20" points="546.75 34.67 571.5 28.17 570.67 84.67 546.75 34.67"/><polygon class="cls-21" points="489.25 62.17 570.67 84.67 537.67 90 489.25 62.17"/><polygon class="cls-22" points="571.5 28.17 661.5 144.17 570.67 84.67 571.5 28.17"/><polygon class="cls-23" points="268.1 60.26 268.1 60.26 249.75 59.92 309.67 137.67 268.1 60.26"/><polygon class="cls-24" points="249.88 59.92 239.68 82.81 313 140.42 249.88 59.92"/><polygon class="cls-24" points="380.33 231 401.67 209.66 404.33 229 380.33 231"/><polygon class="cls-25" points="427.67 137.67 378.73 92.92 401.67 209.66 427.67 137.67"/><polygon class="cls-23" points="215 97.92 311.26 190.32 248.67 187.83 215 97.92"/><polygon class="cls-18" points="364.67 18 379 94.33 427.67 137.67 364.67 18"/><polygon class="cls-26" points="240.33 82.33 190.67 60.33 216.33 99.67 240.33 82.33"/><polygon class="cls-27" points="161.67 101 216.33 99.67 190.67 60.33 161.67 101"/><polygon class="cls-24" points="161.67 101 249 188.33 216.33 99.67 161.67 101"/><polygon class="cls-18" points="216.33 99.67 310.13 137.79 239.59 82.01 216.33 99.67"/><polygon class="cls-28" points="161.67 101 140.5 93.17 100.5 128.67 161.67 101"/><polygon class="cls-18" points="249 187.17 148 131.67 161.67 101 249 187.17"/><polygon class="cls-29" points="100.5 128.67 148 131.67 161.67 101 100.5 128.67"/><polygon class="cls-18" points="100.5 128.67 153 201.67 148.27 131.07 100.5 128.67"/><polygon class="cls-30" points="249 187.17 179 177.67 148 131.67 249 187.17"/><polygon class="cls-31" points="251.5 215.67 249 187.17 179 177.67 251.5 215.67"/><polygon class="cls-31" points="311 190.17 301 220.17 249 187.17 311 190.17"/><polygon class="cls-18" points="311 190.17 380.33 231 309.67 137.67 311 190.17"/><polygon class="cls-32" points="301 220.17 344 277.17 311 190.17 301 220.17"/><polygon class="cls-33" points="380.33 231 311 190.17 344 277.17 380.33 231"/><polygon class="cls-34" points="295.5 294.67 344 277.17 301 220.17 295.5 294.67"/><polygon class="cls-35" points="295.5 294.67 283.5 355.17 344 277.17 295.5 294.67"/><polygon class="cls-36" points="249 350.67 295.5 294.67 283.5 355.17 249 350.67"/><polygon class="cls-37" points="249 350.67 240 396.17 283.5 355.17 249 350.67"/><polygon class="cls-38" points="179 177.67 208 255.67 247 245.17 179 177.67"/><polygon class="cls-39" points="599.67 65 658 80.33 661.5 144.17 599.67 65"/><polygon class="cls-40" points="658 80.33 676.5 77.17 696.5 97.67 658 80.33"/><polygon class="cls-41" points="661.5 144.17 696.5 97.67 657.45 80.19 661.5 144.17"/><polygon class="cls-42" points="696.5 97.67 725.75 89.42 735.5 121.17 696.5 97.67"/><polygon class="cls-43" points="743 99.92 735.5 121.17 725.75 89.42 743 99.92"/><polygon class="cls-44" points="661.5 248.17 691.75 225.17 628.67 139 661.5 248.17"/><polygon class="cls-45" points="696.5 97.67 715.91 147 661.5 143.42 696.5 97.67"/><polygon class="cls-46" points="735.5 121.17 765.67 165.33 696.5 97.67 735.5 121.17"/><polygon class="cls-47" points="715.67 146.67 763.33 212 721.33 216.33 715.67 146.67"/><polygon class="cls-18" points="735.5 121.17 766.75 139.67 765.67 165.33 735.5 121.17"/><polygon class="cls-48" points="766.25 138.08 786.73 189.98 765.38 164.29 766.25 138.08"/><polygon class="cls-18" points="696.5 97.67 715.67 146.67 765.75 164.42 696.5 97.67"/><polygon class="cls-49" points="715.67 146.67 763.33 212 765.75 164.42 715.67 146.67"/><polygon class="cls-50" points="100.5 128.67 88.5 115.17 65.5 136.17 100.5 128.67"/><polygon class="cls-51" points="98 161.67 100.5 128.67 65.5 136.17 98 161.67"/><polygon class="cls-52" points="153 201.67 100.26 128.4 97.5 161.83 153 201.67"/><polygon class="cls-37" points="208 255.67 98 161.67 153 201.67 208 255.67"/><polygon class="cls-53" points="65.5 136.17 0 181.67 69 187.67 65.5 136.17"/><polygon class="cls-54" points="98 161.67 69 187.67 65.5 136.17 98 161.67"/><polygon class="cls-55" points="0 181.67 -0.5 228.17 69 187.67 0 181.67"/><polygon class="cls-56" points="69 187.67 152.5 294.17 -0.5 228.17 69 187.67"/><polygon class="cls-37" points="98 161.67 152.5 294.17 69 187.67 98 161.67"/><polygon class="cls-57" points="214.83 300.5 152.5 294.83 98 161.67 214.83 300.5"/><polygon class="cls-58" points="208 255.67 213.75 300.17 98 161.67 208 255.67"/><polygon class="cls-59" points="152.5 294.17 213.63 299.26 249 350.67 152.5 294.17"/><polygon class="cls-60" points="152.5 294.17 240 396.67 250.09 350.81 152.5 294.17"/><polygon class="cls-61" points="108.67 274.67 129.67 351.67 -0.5 228.17 108.67 274.67"/><polygon class="cls-62" points="152.5 294.17 129.25 353.17 108.67 274.67 152.5 294.17"/><polygon class="cls-63" points="240 396.17 129.67 351.67 152.5 293.67 240 396.17"/><polygon class="cls-64" points="45 319.67 0 398.42 -0.5 228.17 45 319.67"/><polygon class="cls-65" points="240 396.17 128.17 350.25 142.5 400.17 240 396.17"/><polygon class="cls-66" points="743 99.92 766.75 139.67 735.5 121.17 743 99.92"/><polygon class="cls-67" points="768.67 89.33 766.75 139.67 743 99.92 768.67 89.33"/><polygon class="cls-68" points="800 91.33 766.33 138.33 768.67 89.33 800 91.33"/><polygon class="cls-69" points="786 189.17 800 91.33 766.33 138.33 786 189.17"/><polygon class="cls-70" points="800.33 220.67 800.67 266.33 786 188.33 800.33 220.67"/><polygon class="cls-70" points="800.5 378.67 800.67 320.34 733.33 329 800.5 378.67"/><polygon class="cls-71" points="360.5 345.67 428 410.67 415 322.42 360.5 345.67"/><polygon class="cls-72" points="240 396.17 428 410.67 360.5 344.92 240 396.17"/><polygon class="cls-73" points="685.67 366 733.33 329 800.5 378.67 685.67 366"/><polygon class="cls-74" points="800.5 378.67 730 430.33 685.67 366 800.5 378.67"/><polygon class="cls-75" points="325 118.67 401.67 209.66 389.33 146.67 325 118.67"/><polygon class="cls-18" points="401.67 209.66 380.33 231 325 118.67 401.67 209.66"/><polygon class="cls-76" points="427.67 137.67 401.67 209.66 456 147.33 427.67 137.67"/><polygon class="cls-77" points="456 147.33 489.33 61.34 427.67 137.67 456 147.33"/><polygon class="cls-70" points="490.75 40.92 489.33 61.34 450.5 109.17 490.75 40.92"/><polygon class="cls-78" points="490.75 40.92 516.5 22.42 489.25 62.17 490.75 40.92"/><polygon class="cls-79" points="489.25 62.17 546.75 34.67 570.67 84.67 489.25 62.17"/><polygon class="cls-80" points="541.25 128.08 557 156.17 488 207.33 541.25 128.08"/><polygon class="cls-18" points="456 147.33 489.5 211.33 470.97 108.71 456 147.33"/><polygon class="cls-81" points="489.33 61.34 537.67 90 511.71 128.63 489.33 61.34"/><polygon class="cls-70" points="537.11 89.67 570.67 84.67 512 127.67 537.11 89.67"/><polygon class="cls-29" points="309.67 137.67 325 118.67 268.1 60.26 309.67 137.67"/><polygon class="cls-29" points="309.25 137.79 380.33 231 325 118.42 309.25 137.79"/><polygon class="cls-31" points="153 201.67 208 255.67 179 177.67 153 201.67"/><polygon class="cls-82" points="148 131.67 179 177.67 153 201.67 148 131.67"/><polygon class="cls-83" points="380.33 231 282.33 356.33 404.33 229 380.33 231"/><polygon class="cls-29" points="282.33 356.33 409.5 273.17 404.33 229 282.33 356.33"/><polygon class="cls-84" points="208 255.67 249 350.67 247.83 245 208 255.67"/><polygon class="cls-85" points="179 177.67 251.5 215.67 295.5 294.67 179 177.67"/><polygon class="cls-86" points="249 187.17 295.5 294.67 251.5 215.67 249 187.17"/><polygon class="cls-38" points="301 220.17 249 187.17 295.5 294.67 301 220.17"/><polygon class="cls-37" points="213.75 300.17 208 255.67 249 350.67 213.75 300.17"/><polygon class="cls-87" points="295.5 294.67 249 350.67 247 245.17 295.5 294.67"/><polygon class="cls-37" points="-0.5 228.17 44.55 320.45 129.67 351.67 -0.5 228.17"/><polygon class="cls-88" points="0.5 396.67 129.67 351.67 45 319.67 0.5 396.67"/><polygon class="cls-89" points="-3 396.92 142.5 400.17 130.22 350.27 -3 396.92"/><polygon class="cls-90" points="628.03 139.34 661.5 144.17 570.67 84.67 628.03 139.34"/><polygon class="cls-91" points="661.5 248.17 562.5 233.17 557 156.17 661.5 248.17"/><polygon class="cls-18" points="541.25 128.08 661.5 248.17 557 156.17 541.25 128.08"/><polygon class="cls-92" points="628.67 139 614 167 541.08 128.08 628.67 139"/><polygon class="cls-70" points="661.5 248.17 628.67 139 614 167 661.5 248.17"/><polygon class="cls-93" points="541.08 128.08 614 167 661.5 248.17 541.08 128.08"/><polygon class="cls-94" points="401.67 209.66 409.5 273.17 456 147.33 401.67 209.66"/><polygon class="cls-29" points="456 147.33 409.5 273.17 488 207.33 456 147.33"/><polygon class="cls-95" points="660.67 248 733.33 329 691.75 225.17 660.67 248"/><polygon class="cls-96" points="691.75 225.17 733.33 329 764.67 290.5 691.75 225.17"/><polygon class="cls-97" points="628.67 139 691.75 225.17 662 143.42 628.67 139"/><polygon class="cls-98" points="662 143.42 691.75 225.17 721.33 216.33 662 143.42"/><polygon class="cls-18" points="661.33 143.28 715.88 146.29 721.33 216.33 661.33 143.28"/><polygon class="cls-77" points="557 156.17 562.5 233.17 488 207.33 557 156.17"/><polygon class="cls-99" points="488 207.33 497 265.33 562.5 233.17 488 207.33"/><polygon class="cls-77" points="562.5 233.17 686.5 366.17 600 344.34 562.5 233.17"/><polygon class="cls-73" points="562.5 233.17 733.33 329 660.67 248 562.5 233.17"/><polygon class="cls-100" points="733.33 329 686.5 366.17 562.5 233.17 733.33 329"/><polygon class="cls-101" points="283.5 355.17 409.5 273.17 361 346.17 283.5 355.17"/><polygon class="cls-102" points="415 323.17 409.5 273.17 360.5 345.67 415 323.17"/><polygon class="cls-103" points="409.5 273.17 415 323.17 499 263.67 409.5 273.17"/><path class="cls-104" d="M499,263.67s12,117.66,13,117.66-97-58.16-97-58.16Z"/><polygon class="cls-105" points="499 263.67 600 344.34 562.5 233.17 499 263.67"/><polygon class="cls-106" points="600 344.34 511.33 381.33 497 262 600 344.34"/><polygon class="cls-37" points="282.63 355.17 360.75 345.98 240 396.17 282.63 355.17"/><polygon class="cls-107" points="415 323.17 428 410.67 511.75 380.67 415 323.17"/><polygon class="cls-108" points="409.5 273.17 498.67 264.67 488 207.33 409.5 273.17"/><polygon class="cls-109" points="510.67 380.67 636 414.33 600 344.34 510.67 380.67"/><polygon class="cls-77" points="636 414.33 730 430.33 685.67 366 636 414.33"/><polygon class="cls-73" points="685.67 366 636 414.33 600 344.34 685.67 366"/><polygon class="cls-18" points="721.33 216.33 763.67 290.67 691.75 225.17 721.33 216.33"/><polygon class="cls-110" points="763.33 212 721.1 216.4 763.67 290.67 763.33 212"/><polygon class="cls-18" points="763.33 212 765.75 164.42 786 189.17 763.33 212"/><polygon class="cls-111" points="763.33 212 800.67 266.33 786 188.33 763.33 212"/><polygon class="cls-18" points="800.67 266.33 762.42 292.25 763.13 211.67 800.67 266.33"/><polygon class="cls-112" points="800.67 320.34 763.67 290.67 800.67 266.33 800.67 320.34"/><polygon class="cls-113" points="800.67 320.34 763.67 290.67 733.33 329 800.67 320.34"/><polygon class="cls-70" points="800.33 222.33 785.26 189.1 800 91.33 800.33 222.33"/><polygon class="cls-18" points="570.67 84.67 629 139.45 540.44 129.29 570.67 84.67"/><polygon class="cls-114" points="511.32 127.44 488 207.33 570.67 84.67 511.32 127.44"/><polygon class="cls-115" points="216.33 99.67 311 137.66 311.47 191.41 216.33 99.67"/></g></svg>