<svg xmlns="http://www.w3.org/2000/svg" xmlns:xlink="http://www.w3.org/1999/xlink" viewBox="0 0 800 425.91"><defs><style>.cls-1{fill:url(#linear-gradient);}.cls-2{fill:url(#linear-gradient-2);}.cls-3{fill:url(#linear-gradient-3);}.cls-4{fill:url(#linear-gradient-4);}.cls-5{fill:url(#linear-gradient-5);}.cls-6{fill:url(#linear-gradient-6);}.cls-7{fill:#e2d7d4;}.cls-8{fill:url(#linear-gradient-7);}.cls-9{fill:url(#linear-gradient-8);}.cls-10{fill:url(#linear-gradient-9);}.cls-11{fill:url(#linear-gradient-10);}.cls-12{fill:url(#linear-gradient-11);}.cls-13{fill:url(#linear-gradient-12);}.cls-14{fill:url(#linear-gradient-13);}.cls-15{fill:url(#linear-gradient-14);}.cls-16{fill:#5b4448;}.cls-17{fill:url(#linear-gradient-15);}.cls-18{fill:url(#linear-gradient-16);}.cls-19{fill:url(#linear-gradient-17);}.cls-20{fill:url(#linear-gradient-18);}.cls-21{fill:#45414e;}.cls-22{fill:#514457;}.cls-23{fill:url(#linear-gradient-19);}.cls-24{fill:url(#linear-gradient-20);}.cls-25{fill:url(#linear-gradient-21);}.cls-26{fill:url(#linear-gradient-22);}.cls-27{fill:#353535;}.cls-28{fill:url(#linear-gradient-23);}.cls-29{fill:#d2bccb;}.cls-30{fill:url(#linear-gradient-24);}.cls-31{fill:url(#linear-gradient-25);}.cls-32,.cls-34,.cls-81{fill:#78546b;stroke-miterlimit:10;}.cls-32{stroke:url(#linear-gradient-26);}.cls-33{fill:url(#linear-gradient-27);}.cls-34{stroke:url(#linear-gradient-28);}.cls-35{fill:#272738;}.cls-36{fill:#be95b1;}.cls-37{fill:url(#linear-gradient-29);}.cls-38{fill:#c79db0;}.cls-39{fill:url(#linear-gradient-30);}.cls-40{fill:url(#linear-gradient-31);}.cls-41{fill:url(#linear-gradient-32);}.cls-42{fill:url(#linear-gradient-33);}.cls-43{fill:url(#linear-gradient-34);}.cls-44{fill:url(#linear-gradient-35);}.cls-45{fill:url(#linear-gradient-36);}.cls-46{fill:url(#linear-gradient-37);}.cls-47{fill:url(#linear-gradient-38);}.cls-48{fill:url(#linear-gradient-39);}.cls-49{fill:url(#linear-gradient-40);}.cls-50{fill:url(#linear-gradient-41);}.cls-51{fill:url(#linear-gradient-42);}.cls-52{fill:url(#linear-gradient-43);}.cls-53{fill:url(#linear-gradient-44);}.cls-54{fill:url(#linear-gradient-45);}.cls-55{fill:url(#linear-gradient-46);}.cls-56{fill:#3d4c7c;}.cls-57{fill:url(#linear-gradient-47);}.cls-58{fill:url(#linear-gradient-48);}.cls-59{fill:url(#linear-gradient-49);}.cls-60{fill:url(#linear-gradient-50);}.cls-61{fill:url(#linear-gradient-51);}.cls-62{fill:#191926;}.cls-63{fill:url(#linear-gradient-52);}.cls-64{fill:url(#linear-gradient-53);}.cls-65{fill:url(#linear-gradient-54);}.cls-66{fill:url(#linear-gradient-55);}.cls-67{fill:url(#linear-gradient-56);}.cls-68{fill:#b66f69;}.cls-69{fill:url(#linear-gradient-57);}.cls-70{fill:url(#linear-gradient-58);}.cls-71{fill:#b5cbdd;}.cls-72{fill:url(#linear-gradient-59);}.cls-73{fill:url(#linear-gradient-60);}.cls-74{fill:url(#linear-gradient-61);}.cls-75{fill:#cbd5df;}.cls-76{fill:url(#linear-gradient-62);}.cls-77{fill:url(#linear-gradient-63);}.cls-78{fill:url(#linear-gradient-64);}.cls-79{fill:url(#linear-gradient-65);}.cls-80{fill:url(#linear-gradient-66);}.cls-81{stroke:url(#linear-gradient-67);}.cls-82{fill:url(#linear-gradient-68);}.cls-83{fill:url(#linear-gradient-69);}.cls-84{fill:#ead3e4;}.cls-85{fill:url(#linear-gradient-70);}.cls-86{fill:url(#linear-gradient-71);}.cls-87{fill:url(#linear-gradient-72);}.cls-88{fill:url(#linear-gradient-73);}.cls-89{fill:url(#linear-gradient-74);}.cls-90{fill:url(#linear-gradient-75);}.cls-91{fill:url(#linear-gradient-76);}.cls-92{fill:url(#linear-gradient-77);}.cls-93{fill:url(#linear-gradient-78);}.cls-94{fill:url(#linear-gradient-79);}.cls-95{fill:url(#linear-gradient-80);}.cls-96{fill:url(#linear-gradient-81);}.cls-97{fill:url(#linear-gradient-82);}.cls-98{fill:url(#linear-gradient-83);}.cls-99{fill:url(#linear-gradient-84);}.cls-100{fill:url(#linear-gradient-85);}.cls-101{fill:url(#linear-gradient-86);}.cls-102{fill:url(#linear-gradient-87);}.cls-103{fill:url(#linear-gradient-88);}.cls-104{fill:url(#linear-gradient-89);}.cls-105{fill:url(#linear-gradient-90);}.cls-106{fill:url(#linear-gradient-91);}.cls-107{fill:url(#linear-gradient-92);}.cls-108{fill:url(#linear-gradient-93);}.cls-109{fill:url(#linear-gradient-94);}.cls-110{fill:url(#linear-gradient-95);}.cls-111{fill:url(#linear-gradient-96);}.cls-112{fill:url(#linear-gradient-97);}.cls-113{fill:url(#linear-gradient-98);}.cls-114{fill:url(#linear-gradient-99);}</style><linearGradient id="linear-gradient" x1="298.21" y1="0.33" x2="298.21" y2="117.76" gradientUnits="userSpaceOnUse"><stop offset="0" stop-color="#e5d3cf"/><stop offset="0.4" stop-color="#e3d1cd"/><stop offset="0.56" stop-color="#decac8"/><stop offset="0.68" stop-color="#d4bebe"/><stop offset="0.78" stop-color="#c6acb0"/><stop offset="0.86" stop-color="#b3969e"/><stop offset="0.94" stop-color="#9d7a88"/><stop offset="1" stop-color="#845b6f"/></linearGradient><linearGradient id="linear-gradient-2" x1="340.65" x2="340.65" y2="118.87" gradientUnits="userSpaceOnUse"><stop offset="0" stop-color="#e2d7d4"/><stop offset="0.35" stop-color="#e1d4d2"/><stop offset="0.57" stop-color="#ddcccd"/><stop offset="0.76" stop-color="#d6bdc4"/><stop offset="0.93" stop-color="#cca8b7"/><stop offset="1" stop-color="#c79db0"/></linearGradient><linearGradient id="linear-gradient-3" x1="358.52" y1="16.91" x2="358.52" y2="144.99" gradientUnits="userSpaceOnUse"><stop offset="0" stop-color="#b66f69"/><stop offset="0.23" stop-color="#a76665"/><stop offset="1" stop-color="#774b57"/></linearGradient><linearGradient id="linear-gradient-4" x1="471.59" y1="93.33" x2="512.65" y2="93.33" gradientUnits="userSpaceOnUse"><stop offset="0" stop-color="#a96b60"/><stop offset="0.11" stop-color="#a3685e"/><stop offset="1" stop-color="#734e51"/></linearGradient><linearGradient id="linear-gradient-5" x1="471.01" y1="156.71" x2="512.65" y2="156.71" gradientUnits="userSpaceOnUse"><stop offset="0" stop-color="#5b4448"/><stop offset="1" stop-color="#443337"/></linearGradient><linearGradient id="linear-gradient-6" x1="422.17" y1="63" x2="395.21" y2="78.56" gradientUnits="userSpaceOnUse"><stop offset="0" stop-color="#d5b8be"/><stop offset="0.33" stop-color="#d3b6bc"/><stop offset="0.52" stop-color="#ccaeb5"/><stop offset="0.67" stop-color="#c0a0a9"/><stop offset="0.8" stop-color="#af8c99"/><stop offset="0.91" stop-color="#997383"/><stop offset="1" stop-color="#845b6f"/></linearGradient><linearGradient id="linear-gradient-7" x1="424.06" y1="101.27" x2="451.93" y2="101.27" xlink:href="#linear-gradient-4"/><linearGradient id="linear-gradient-8" x1="403.31" y1="45.1" x2="424.06" y2="45.1" gradientUnits="userSpaceOnUse"><stop offset="0" stop-color="#845b6f"/><stop offset="0.09" stop-color="#997383"/><stop offset="0.2" stop-color="#af8c99"/><stop offset="0.33" stop-color="#c0a0a9"/><stop offset="0.48" stop-color="#ccaeb5"/><stop offset="0.67" stop-color="#d3b6bc"/><stop offset="1" stop-color="#d5b8be"/></linearGradient><linearGradient id="linear-gradient-9" x1="419.83" y1="45.34" x2="434.26" y2="45.34" xlink:href="#linear-gradient-2"/><linearGradient id="linear-gradient-10" x1="426.54" y1="38.41" x2="437.25" y2="38.41" xlink:href="#linear-gradient-8"/><linearGradient id="linear-gradient-11" x1="424.06" y1="77.41" x2="451.43" y2="77.41" xlink:href="#linear-gradient-3"/><linearGradient id="linear-gradient-12" x1="434.26" y1="36.93" x2="463.87" y2="36.93" xlink:href="#linear-gradient-2"/><linearGradient id="linear-gradient-13" x1="463.13" y1="42.25" x2="491.5" y2="42.25" xlink:href="#linear-gradient-2"/><linearGradient id="linear-gradient-14" x1="449.07" y1="26.9" x2="449.07" y2="57.6" xlink:href="#linear-gradient-6"/><linearGradient id="linear-gradient-15" x1="451.43" y1="74.06" x2="491.5" y2="74.06" xlink:href="#linear-gradient-5"/><linearGradient id="linear-gradient-16" x1="581.11" y1="36.87" x2="552.72" y2="65.26" xlink:href="#linear-gradient-6"/><linearGradient id="linear-gradient-17" x1="490" y1="75.09" x2="571.05" y2="75.09" xlink:href="#linear-gradient-5"/><linearGradient id="linear-gradient-18" x1="616.26" y1="27.64" x2="616.26" y2="142.52" gradientUnits="userSpaceOnUse"><stop offset="0" stop-color="#e2d7d4"/><stop offset="1" stop-color="#e5d3cf"/></linearGradient><linearGradient id="linear-gradient-19" x1="379.99" y1="149.57" x2="428.7" y2="149.57" xlink:href="#linear-gradient-5"/><linearGradient id="linear-gradient-20" x1="192.78" y1="78.97" x2="242.22" y2="78.97" xlink:href="#linear-gradient-2"/><linearGradient id="linear-gradient-21" x1="163.92" y1="79.63" x2="218.33" y2="79.63" xlink:href="#linear-gradient"/><linearGradient id="linear-gradient-22" x1="103.03" y1="109.59" x2="163.92" y2="109.59" xlink:href="#linear-gradient-2"/><linearGradient id="linear-gradient-23" x1="211.97" y1="146.23" x2="181.84" y2="176.36" gradientUnits="userSpaceOnUse"><stop offset="0" stop-color="#774b57"/><stop offset="0.77" stop-color="#a76665"/><stop offset="1" stop-color="#b66f69"/></linearGradient><linearGradient id="linear-gradient-24" x1="302.61" y1="231.15" x2="345.42" y2="231.15" gradientUnits="userSpaceOnUse"><stop offset="0" stop-color="#a77d9e"/><stop offset="0.41" stop-color="#a47b9b"/><stop offset="0.67" stop-color="#9c7593"/><stop offset="0.9" stop-color="#8d6b85"/><stop offset="1" stop-color="#83647b"/></linearGradient><linearGradient id="linear-gradient-25" x1="323.36" y1="181.84" x2="368.88" y2="260.68" gradientUnits="userSpaceOnUse"><stop offset="0" stop-color="#be95b1"/><stop offset="0.34" stop-color="#bb93af"/><stop offset="0.57" stop-color="#b38ca7"/><stop offset="0.76" stop-color="#a47f99"/><stop offset="0.93" stop-color="#8f6e86"/><stop offset="1" stop-color="#83647b"/></linearGradient><linearGradient id="linear-gradient-26" x1="296.58" y1="254.36" x2="346.23" y2="254.36" gradientUnits="userSpaceOnUse"><stop offset="0" stop-color="#78546b"/><stop offset="0.11" stop-color="#7b5970"/><stop offset="0.46" stop-color="#816178"/><stop offset="1" stop-color="#83647b"/></linearGradient><linearGradient id="linear-gradient-27" x1="315.3" y1="274.23" x2="315.3" y2="351.47" gradientUnits="userSpaceOnUse"><stop offset="0" stop-color="#845b6f"/><stop offset="1" stop-color="#83647b"/></linearGradient><linearGradient id="linear-gradient-28" x1="249.88" y1="320.88" x2="298.01" y2="320.88" gradientUnits="userSpaceOnUse"><stop offset="0" stop-color="#83647b"/><stop offset="0.54" stop-color="#816178"/><stop offset="0.89" stop-color="#7b5970"/><stop offset="1" stop-color="#78546b"/></linearGradient><linearGradient id="linear-gradient-29" x1="599.92" y1="103.32" x2="661.47" y2="103.32" gradientUnits="userSpaceOnUse"><stop offset="0" stop-color="#d1b7bc"/><stop offset="1" stop-color="#e5d3cf"/></linearGradient><linearGradient id="linear-gradient-30" x1="652.08" y1="109.54" x2="692.74" y2="116.71" gradientUnits="userSpaceOnUse"><stop offset="0" stop-color="#845b6f"/><stop offset="0.07" stop-color="#916c7c"/><stop offset="0.26" stop-color="#af919a"/><stop offset="0.45" stop-color="#c7aeb1"/><stop offset="0.64" stop-color="#d8c2c2"/><stop offset="0.82" stop-color="#e2cfcc"/><stop offset="1" stop-color="#e5d3cf"/></linearGradient><linearGradient id="linear-gradient-31" x1="696.31" y1="104.02" x2="735.13" y2="104.02" xlink:href="#linear-gradient"/><linearGradient id="linear-gradient-32" x1="725.42" y1="104.02" x2="742.6" y2="104.02" xlink:href="#linear-gradient-2"/><linearGradient id="linear-gradient-33" x1="628.78" y1="191.45" x2="691.58" y2="191.45" xlink:href="#linear-gradient-18"/><linearGradient id="linear-gradient-34" x1="661.47" y1="120.9" x2="715.63" y2="120.9" xlink:href="#linear-gradient-5"/><linearGradient id="linear-gradient-35" x1="696.31" y1="129.97" x2="765.16" y2="129.97" xlink:href="#linear-gradient-5"/><linearGradient id="linear-gradient-36" x1="715.39" y1="179.49" x2="762.84" y2="179.49" xlink:href="#linear-gradient"/><linearGradient id="linear-gradient-37" x1="764.88" y1="162.19" x2="786.13" y2="162.19" xlink:href="#linear-gradient-3"/><linearGradient id="linear-gradient-38" x1="759.56" y1="156.89" x2="734.8" y2="181.66" gradientUnits="userSpaceOnUse"><stop offset="0" stop-color="#e5d3cf"/><stop offset="0.18" stop-color="#e2cfcc"/><stop offset="0.36" stop-color="#d8c2c2"/><stop offset="0.55" stop-color="#c7aeb1"/><stop offset="0.74" stop-color="#af919a"/><stop offset="0.93" stop-color="#916c7c"/><stop offset="1" stop-color="#845b6f"/></linearGradient><linearGradient id="linear-gradient-39" x1="68.19" y1="124.2" x2="103.03" y2="124.2" xlink:href="#linear-gradient-2"/><linearGradient id="linear-gradient-40" x1="68.19" y1="143.51" x2="103.03" y2="143.51" xlink:href="#linear-gradient-6"/><linearGradient id="linear-gradient-41" x1="100.04" y1="163.18" x2="155.29" y2="163.18" xlink:href="#linear-gradient-3"/><linearGradient id="linear-gradient-42" x1="2.99" y1="160.1" x2="71.67" y2="160.1" xlink:href="#linear-gradient"/><linearGradient id="linear-gradient-43" x1="68.19" y1="160.1" x2="100.54" y2="160.1" xlink:href="#linear-gradient"/><linearGradient id="linear-gradient-44" x1="2.49" y1="202.68" x2="71.67" y2="202.68" gradientUnits="userSpaceOnUse"><stop offset="0" stop-color="#464376"/><stop offset="1" stop-color="#3b3b66"/></linearGradient><linearGradient id="linear-gradient-45" x1="56.9" y1="280.12" x2="111.55" y2="225.47" gradientUnits="userSpaceOnUse"><stop offset="0" stop-color="#423e5d"/><stop offset="1" stop-color="#302d51"/></linearGradient><linearGradient id="linear-gradient-46" x1="100.54" y1="228.59" x2="216.84" y2="228.59" gradientUnits="userSpaceOnUse"><stop offset="0" stop-color="#4e5189"/><stop offset="1" stop-color="#46436c"/></linearGradient><linearGradient id="linear-gradient-47" x1="154.79" y1="319.04" x2="250.85" y2="319.04" xlink:href="#linear-gradient-45"/><linearGradient id="linear-gradient-48" x1="154.79" y1="341.82" x2="251.94" y2="341.82" gradientUnits="userSpaceOnUse"><stop offset="0" stop-color="#36364c"/><stop offset="1" stop-color="#272738"/></linearGradient><linearGradient id="linear-gradient-49" x1="2.49" y1="286.85" x2="132.06" y2="286.85" xlink:href="#linear-gradient-46"/><linearGradient id="linear-gradient-50" x1="111.16" y1="310.62" x2="154.79" y2="310.62" xlink:href="#linear-gradient-46"/><linearGradient id="linear-gradient-51" x1="132.06" y1="341.32" x2="241.89" y2="341.32" xlink:href="#linear-gradient-45"/><linearGradient id="linear-gradient-52" x1="130.57" y1="371.32" x2="241.89" y2="371.32" gradientUnits="userSpaceOnUse"><stop offset="0" stop-color="#46436c"/><stop offset="1" stop-color="#4e5189"/></linearGradient><linearGradient id="linear-gradient-53" x1="735.13" y1="118.38" x2="766.24" y2="118.38" xlink:href="#linear-gradient-4"/><linearGradient id="linear-gradient-54" x1="742.6" y1="113.14" x2="768.15" y2="113.14" xlink:href="#linear-gradient"/><linearGradient id="linear-gradient-55" x1="765.82" y1="112.48" x2="799.34" y2="112.48" xlink:href="#linear-gradient-2"/><linearGradient id="linear-gradient-56" x1="765.82" y1="138.64" x2="799.34" y2="138.64" xlink:href="#linear-gradient-4"/><linearGradient id="linear-gradient-57" x1="387.17" y1="327.44" x2="431.84" y2="404.81" gradientUnits="userSpaceOnUse"><stop offset="0" stop-color="#445d9b"/><stop offset="0.01" stop-color="#455f9c"/><stop offset="0.16" stop-color="#5271a6"/><stop offset="0.33" stop-color="#5b7ead"/><stop offset="0.55" stop-color="#6086b1"/><stop offset="1" stop-color="#6288b2"/></linearGradient><linearGradient id="linear-gradient-58" x1="378.66" y1="356.06" x2="292.27" y2="442.45" gradientUnits="userSpaceOnUse"><stop offset="0" stop-color="#445d9b"/><stop offset="0.48" stop-color="#4e74a9"/><stop offset="1" stop-color="#5889b5"/></linearGradient><linearGradient id="linear-gradient-59" x1="685.52" y1="394.05" x2="799.83" y2="394.05" gradientUnits="userSpaceOnUse"><stop offset="0" stop-color="#90a5c0"/><stop offset="0.49" stop-color="#8ea3bf"/><stop offset="0.69" stop-color="#899cba"/><stop offset="0.84" stop-color="#7f90b2"/><stop offset="0.96" stop-color="#717ea6"/><stop offset="1" stop-color="#6b77a1"/></linearGradient><linearGradient id="linear-gradient-60" x1="364.66" y1="117.26" x2="364.66" y2="207.38" xlink:href="#linear-gradient-4"/><linearGradient id="linear-gradient-61" x1="429.86" y1="136.08" x2="429.86" y2="207.38" gradientUnits="userSpaceOnUse"><stop offset="0" stop-color="#b3bad0"/><stop offset="0.17" stop-color="#a9b3cc"/><stop offset="1" stop-color="#7995b7"/></linearGradient><linearGradient id="linear-gradient-62" x1="503.57" y1="21.95" x2="503.57" y2="61.31" xlink:href="#linear-gradient"/><linearGradient id="linear-gradient-63" x1="530.53" y1="34.08" x2="530.53" y2="83.59" xlink:href="#linear-gradient"/><linearGradient id="linear-gradient-64" x1="488.76" y1="165.83" x2="557.44" y2="165.83" xlink:href="#linear-gradient-3"/><linearGradient id="linear-gradient-65" x1="490.09" y1="93.81" x2="538.2" y2="93.81" xlink:href="#linear-gradient-23"/><linearGradient id="linear-gradient-66" x1="150.31" y1="164.8" x2="181.17" y2="164.8" xlink:href="#linear-gradient-4"/><linearGradient id="linear-gradient-67" x1="345.2" y1="352.97" x2="345.2" y2="225.92" xlink:href="#linear-gradient-28"/><linearGradient id="linear-gradient-68" x1="230.44" y1="242.37" x2="230.44" y2="347.01" gradientUnits="userSpaceOnUse"><stop offset="0" stop-color="#a77d9e"/><stop offset="0.47" stop-color="#94708c"/><stop offset="1" stop-color="#83647b"/></linearGradient><linearGradient id="linear-gradient-69" x1="181.17" y1="233.63" x2="297.14" y2="233.63" xlink:href="#linear-gradient-24"/><linearGradient id="linear-gradient-70" x1="248.86" y1="294.78" x2="297.14" y2="294.78" xlink:href="#linear-gradient-24"/><linearGradient id="linear-gradient-71" x1="67.77" y1="392.57" x2="67.77" y2="316.32" xlink:href="#linear-gradient-45"/><linearGradient id="linear-gradient-72" x1="0" y1="371.33" x2="144.84" y2="371.33" xlink:href="#linear-gradient-46"/><linearGradient id="linear-gradient-73" x1="571.05" y1="113.06" x2="661.47" y2="113.06" xlink:href="#linear-gradient-5"/><linearGradient id="linear-gradient-74" x1="609.46" y1="154.4" x2="609.46" y2="245.51" xlink:href="#linear-gradient-59"/><linearGradient id="linear-gradient-75" x1="541.6" y1="145.86" x2="628.78" y2="145.86" xlink:href="#linear-gradient-5"/><linearGradient id="linear-gradient-76" x1="541.6" y1="186.05" x2="661.47" y2="186.05" xlink:href="#linear-gradient-23"/><linearGradient id="linear-gradient-77" x1="476.49" y1="165.23" x2="391.04" y2="250.68" gradientUnits="userSpaceOnUse"><stop offset="0" stop-color="#564646"/><stop offset="0.25" stop-color="#5e4a4e"/><stop offset="0.65" stop-color="#755565"/><stop offset="1" stop-color="#8e617e"/></linearGradient><linearGradient id="linear-gradient-78" x1="660.64" y1="274.14" x2="732.97" y2="274.14" gradientUnits="userSpaceOnUse"><stop offset="0" stop-color="#845b6f"/><stop offset="0.06" stop-color="#9d7a88"/><stop offset="0.14" stop-color="#b3969e"/><stop offset="0.22" stop-color="#c6acb0"/><stop offset="0.32" stop-color="#d4bebe"/><stop offset="0.44" stop-color="#decac8"/><stop offset="0.6" stop-color="#e3d1cd"/><stop offset="1" stop-color="#e5d3cf"/></linearGradient><linearGradient id="linear-gradient-79" x1="691.58" y1="274.14" x2="764.16" y2="274.14" xlink:href="#linear-gradient-5"/><linearGradient id="linear-gradient-80" x1="628.78" y1="180.07" x2="691.58" y2="180.07" xlink:href="#linear-gradient-30"/><linearGradient id="linear-gradient-81" x1="661.97" y1="182.25" x2="721.03" y2="182.25" xlink:href="#linear-gradient-3"/><linearGradient id="linear-gradient-82" x1="537.98" y1="205.72" x2="489.46" y2="254.25" xlink:href="#linear-gradient-61"/><linearGradient id="linear-gradient-83" x1="562.92" y1="296.51" x2="732.97" y2="296.51" xlink:href="#linear-gradient-59"/><linearGradient id="linear-gradient-84" x1="285.19" y1="310.87" x2="410.62" y2="310.87" xlink:href="#linear-gradient-46"/><linearGradient id="linear-gradient-85" x1="361.84" y1="306.16" x2="416.09" y2="306.16" gradientUnits="userSpaceOnUse"><stop offset="0" stop-color="#6b77a1"/><stop offset="1" stop-color="#5a5a82"/></linearGradient><linearGradient id="linear-gradient-86" x1="455.16" y1="319.78" x2="455.16" y2="260.86" gradientUnits="userSpaceOnUse"><stop offset="0" stop-color="#90a5c0"/><stop offset="1" stop-color="#6b77a1"/></linearGradient><linearGradient id="linear-gradient-87" x1="416.09" y1="319.12" x2="512.66" y2="319.12" gradientUnits="userSpaceOnUse"><stop offset="0" stop-color="#6288b2"/><stop offset="0.01" stop-color="#6288b2"/><stop offset="0.33" stop-color="#5a89b4"/><stop offset="1" stop-color="#5889b5"/></linearGradient><linearGradient id="linear-gradient-88" x1="499.71" y1="285.7" x2="600.25" y2="285.7" gradientUnits="userSpaceOnUse"><stop offset="0" stop-color="#7094be"/><stop offset="0" stop-color="#7094be"/><stop offset="0.2" stop-color="#75a1c3"/><stop offset="0.46" stop-color="#78a9c6"/><stop offset="1" stop-color="#79abc7"/></linearGradient><linearGradient id="linear-gradient-89" x1="491.78" y1="357.18" x2="554.23" y2="294.73" gradientUnits="userSpaceOnUse"><stop offset="0" stop-color="#79abc7"/><stop offset="0.92" stop-color="#7196bf"/><stop offset="1" stop-color="#7094be"/></linearGradient><linearGradient id="linear-gradient-90" x1="416.09" y1="363.11" x2="512.4" y2="363.11" xlink:href="#linear-gradient-88"/><linearGradient id="linear-gradient-91" x1="507.46" y1="451.71" x2="557.65" y2="364.78" xlink:href="#linear-gradient-86"/><linearGradient id="linear-gradient-92" x1="455" y1="205.07" x2="455" y2="270.27" xlink:href="#linear-gradient-85"/><linearGradient id="linear-gradient-93" x1="565.33" y1="407.9" x2="603.14" y2="342.41" gradientUnits="userSpaceOnUse"><stop offset="0" stop-color="#90a5c0"/><stop offset="0.37" stop-color="#7d8db0"/><stop offset="0.72" stop-color="#707da5"/><stop offset="1" stop-color="#6b77a1"/></linearGradient><linearGradient id="linear-gradient-94" x1="720.8" y1="248.64" x2="763.17" y2="248.64" xlink:href="#linear-gradient-5"/><linearGradient id="linear-gradient-95" x1="762.84" y1="224.88" x2="800" y2="224.88" xlink:href="#linear-gradient-4"/><linearGradient id="linear-gradient-96" x1="763.17" y1="290.24" x2="800" y2="290.24" xlink:href="#linear-gradient-5"/><linearGradient id="linear-gradient-97" x1="732.97" y1="306.58" x2="800" y2="306.58" xlink:href="#linear-gradient-4"/><linearGradient id="linear-gradient-98" x1="488.76" y1="144.33" x2="571.05" y2="144.33" xlink:href="#linear-gradient-5"/><linearGradient id="linear-gradient-99" x1="232.48" y1="84.3" x2="325.26" y2="177.07" xlink:href="#linear-gradient-5"/></defs><title>Fichier 1</title><g id="Calque_2" data-name="Calque 2"><g id="OBJECTS"><polygon class="cls-1" points="269.87 59.75 315.98 0.33 326.55 117.76 269.87 59.75"/><polygon class="cls-2" points="315.31 0 365.99 16.91 325.88 118.87 315.31 0"/><polygon class="cls-3" points="365.99 16.91 326.5 117.27 390.54 144.99 365.99 16.91"/><polygon class="cls-4" points="490.09 60.49 471.59 108.1 512.65 126.18 490.09 60.49"/><polygon class="cls-5" points="471.01 107.52 488.76 205.89 512.65 126.18 471.01 107.52"/><polygon class="cls-6" points="424.06 66.27 365.99 18.07 400.5 83.1 428.7 136.58 424.06 66.27"/><polygon class="cls-7" points="425.88 67.58 395.02 15.76 367.81 19.39 425.88 67.58"/><polygon class="cls-8" points="424.06 65.77 428.45 136.77 451.93 107.69 424.06 65.77"/><polygon class="cls-9" points="403.31 29.92 419.83 24.92 424.06 65.27 403.31 29.92"/><polygon class="cls-10" points="419.83 24.92 434.26 46.95 424.06 65.77 419.83 24.92"/><polygon class="cls-11" points="426.55 35.07 437.25 29.87 434.26 46.95 426.55 35.07"/><polygon class="cls-12" points="434.26 46.95 451.43 107.86 424.06 65.77 434.26 46.95"/><polygon class="cls-13" points="437.25 29.87 463.87 26.9 434.26 46.95 437.25 29.87"/><polygon class="cls-14" points="463.87 26.9 491.5 40.27 463.13 57.6 463.87 26.9"/><polygon class="cls-15" points="434.26 46.95 463.13 57.6 463.87 26.9 434.26 46.95"/><polygon class="cls-16" points="434.26 46.95 451.32 108.45 464.04 57.68 434.26 46.95"/><polygon class="cls-17" points="463.13 57.6 491.5 40.27 451.43 107.86 463.13 57.6"/><polygon class="cls-7" points="547.24 34.08 516.38 22.69 490 61.31 547.24 34.08"/><polygon class="cls-18" points="547.24 34.08 571.88 27.64 571.05 83.59 547.24 34.08"/><polygon class="cls-19" points="490 61.31 571.05 83.59 538.2 88.88 490 61.31"/><polygon class="cls-20" points="571.88 27.64 661.47 142.52 571.05 83.59 571.88 27.64"/><polygon class="cls-21" points="269.86 59.42 269.86 59.42 251.6 59.08 311.24 136.08 269.86 59.42"/><polygon class="cls-22" points="251.72 59.08 241.57 81.75 314.56 138.8 251.72 59.08"/><polygon class="cls-22" points="381.58 228.51 402.82 207.38 405.47 226.53 381.58 228.51"/><polygon class="cls-23" points="428.7 136.08 379.99 91.77 402.82 207.38 428.7 136.08"/><polygon class="cls-21" points="217 96.72 312.83 188.23 250.52 185.76 217 96.72"/><polygon class="cls-16" points="365.99 17.58 380.26 93.17 428.7 136.08 365.99 17.58"/><polygon class="cls-24" points="242.22 81.28 192.78 59.5 218.33 98.45 242.22 81.28"/><polygon class="cls-25" points="163.92 99.77 218.33 98.45 192.78 59.5 163.92 99.77"/><polygon class="cls-22" points="163.92 99.77 250.85 186.25 218.33 98.45 163.92 99.77"/><polygon class="cls-16" points="218.33 98.45 311.7 136.2 241.49 80.96 218.33 98.45"/><polygon class="cls-26" points="163.92 99.77 142.84 92.01 103.03 127.17 163.92 99.77"/><polygon class="cls-16" points="250.85 185.1 150.31 130.14 163.92 99.77 250.85 185.1"/><polygon class="cls-27" points="103.03 127.17 150.31 130.14 163.92 99.77 103.03 127.17"/><polygon class="cls-16" points="103.03 127.17 155.29 199.46 150.58 129.55 103.03 127.17"/><polygon class="cls-28" points="250.85 185.1 181.17 175.69 150.31 130.14 250.85 185.1"/><polygon class="cls-29" points="253.34 213.32 250.85 185.1 181.17 175.69 253.34 213.32"/><polygon class="cls-29" points="312.57 188.07 302.61 217.78 250.85 185.1 312.57 188.07"/><polygon class="cls-16" points="312.57 188.07 381.58 228.51 311.24 136.08 312.57 188.07"/><polygon class="cls-30" points="302.61 217.78 345.42 274.23 312.57 188.07 302.61 217.78"/><polygon class="cls-31" points="381.58 228.51 312.57 188.07 345.42 274.23 381.58 228.51"/><polygon class="cls-32" points="297.14 291.56 345.42 274.23 302.61 217.78 297.14 291.56"/><polygon class="cls-33" points="297.14 291.56 285.19 351.47 345.42 274.23 297.14 291.56"/><polygon class="cls-34" points="250.85 347.01 297.14 291.56 285.19 351.47 250.85 347.01"/><polygon class="cls-35" points="250.85 347.01 241.89 392.07 285.19 351.47 250.85 347.01"/><polygon class="cls-36" points="181.17 175.69 210.04 252.94 248.86 242.54 181.17 175.69"/><polygon class="cls-37" points="599.92 64.12 657.98 79.3 661.47 142.52 599.92 64.12"/><polygon class="cls-38" points="657.98 79.3 676.4 76.17 696.31 96.47 657.98 79.3"/><polygon class="cls-39" points="661.47 142.52 696.31 96.47 657.44 79.16 661.47 142.52"/><polygon class="cls-40" points="696.31 96.47 725.42 88.3 735.13 119.74 696.31 96.47"/><polygon class="cls-41" points="742.6 98.7 735.13 119.74 725.42 88.3 742.6 98.7"/><polygon class="cls-42" points="661.47 245.51 691.58 222.73 628.78 137.4 661.47 245.51"/><polygon class="cls-43" points="696.31 96.47 715.63 145.33 661.47 141.78 696.31 96.47"/><polygon class="cls-44" points="735.13 119.74 765.16 163.48 696.31 96.47 735.13 119.74"/><polygon class="cls-45" points="715.39 144.99 762.84 209.69 721.03 213.98 715.39 144.99"/><polygon class="cls-16" points="735.13 119.74 766.24 138.06 765.16 163.48 735.13 119.74"/><polygon class="cls-46" points="765.74 136.49 786.13 187.89 764.88 162.44 765.74 136.49"/><polygon class="cls-16" points="696.31 96.47 715.39 144.99 765.24 162.57 696.31 96.47"/><polygon class="cls-47" points="715.39 144.99 762.84 209.69 765.24 162.57 715.39 144.99"/><polygon class="cls-48" points="103.03 127.17 91.08 113.8 68.19 134.59 103.03 127.17"/><polygon class="cls-49" points="100.54 159.85 103.03 127.17 68.19 134.59 100.54 159.85"/><polygon class="cls-50" points="155.29 199.46 102.79 126.9 100.04 160.01 155.29 199.46"/><polygon class="cls-35" points="210.04 252.94 100.54 159.85 155.29 199.46 210.04 252.94"/><polygon class="cls-51" points="68.19 134.59 2.99 179.65 71.67 185.59 68.19 134.59"/><polygon class="cls-52" points="100.54 159.85 71.67 185.59 68.19 134.59 100.54 159.85"/><polygon class="cls-53" points="2.99 179.65 2.49 225.7 71.67 185.59 2.99 179.65"/><polygon class="cls-54" points="71.67 185.59 154.79 291.06 2.49 225.7 71.67 185.59"/><polygon class="cls-35" points="100.54 159.85 154.79 291.06 71.67 185.59 100.54 159.85"/><polygon class="cls-55" points="216.84 297.33 154.79 291.72 100.54 159.85 216.84 297.33"/><polygon class="cls-56" points="210.04 252.94 215.76 297 100.54 159.85 210.04 252.94"/><polygon class="cls-57" points="154.79 291.06 215.65 296.1 250.85 347.01 154.79 291.06"/><polygon class="cls-58" points="154.79 291.06 241.89 392.57 251.94 347.16 154.79 291.06"/><polygon class="cls-59" points="111.16 271.75 132.06 348 2.49 225.7 111.16 271.75"/><polygon class="cls-60" points="154.79 291.06 131.65 349.49 111.16 271.75 154.79 291.06"/><polygon class="cls-61" points="241.89 392.07 132.06 348 154.79 290.57 241.89 392.07"/><polygon class="cls-62" points="47.78 316.31 2.99 394.3 2.49 225.7 47.78 316.31"/><polygon class="cls-63" points="241.89 392.07 130.57 346.6 144.84 396.03 241.89 392.07"/><polygon class="cls-64" points="742.6 98.7 766.24 138.06 735.13 119.74 742.6 98.7"/><polygon class="cls-65" points="768.15 88.22 766.24 138.06 742.6 98.7 768.15 88.22"/><polygon class="cls-66" points="799.34 90.2 765.82 136.74 768.15 88.22 799.34 90.2"/><polygon class="cls-67" points="785.4 187.08 799.34 90.2 765.82 136.74 785.4 187.08"/><polygon class="cls-68" points="799.67 218.28 800 263.5 785.4 186.26 799.67 218.28"/><polygon class="cls-68" points="799.83 374.74 800 316.98 732.97 325.56 799.83 374.74"/><polygon class="cls-69" points="361.84 342.06 429.03 406.43 416.09 319.04 361.84 342.06"/><polygon class="cls-70" points="241.89 392.07 429.03 406.43 361.84 341.32 241.89 392.07"/><polygon class="cls-71" points="685.52 362.2 732.97 325.56 799.83 374.74 685.52 362.2"/><polygon class="cls-72" points="799.83 374.74 729.65 425.91 685.52 362.2 799.83 374.74"/><polygon class="cls-73" points="326.5 117.27 402.82 207.38 390.54 144.99 326.5 117.27"/><polygon class="cls-16" points="402.82 207.38 381.58 228.51 326.5 117.27 402.82 207.38"/><polygon class="cls-74" points="428.7 136.08 402.82 207.38 456.91 145.65 428.7 136.08"/><polygon class="cls-75" points="456.91 145.65 490.09 60.49 428.7 136.08 456.91 145.65"/><polygon class="cls-68" points="491.5 40.27 490.09 60.49 451.43 107.86 491.5 40.27"/><polygon class="cls-76" points="491.5 40.27 517.13 21.95 490 61.31 491.5 40.27"/><polygon class="cls-77" points="490 61.31 547.24 34.08 571.05 83.59 490 61.31"/><polygon class="cls-78" points="541.77 126.59 557.45 154.4 488.76 205.07 541.77 126.59"/><polygon class="cls-16" points="456.91 145.65 490.25 209.03 471.81 107.41 456.91 145.65"/><polygon class="cls-79" points="490.09 60.49 538.2 88.88 512.36 127.13 490.09 60.49"/><polygon class="cls-68" points="537.64 88.55 571.05 83.59 512.65 126.18 537.64 88.55"/><polygon class="cls-27" points="311.24 136.08 326.5 117.27 269.86 59.42 311.24 136.08"/><polygon class="cls-27" points="310.82 136.2 381.58 228.51 326.5 117.02 310.82 136.2"/><polygon class="cls-29" points="155.29 199.46 210.04 252.94 181.17 175.69 155.29 199.46"/><polygon class="cls-80" points="150.31 130.14 181.17 175.69 155.29 199.46 150.31 130.14"/><polygon class="cls-81" points="381.58 228.51 284.03 352.63 405.47 226.53 381.58 228.51"/><polygon class="cls-27" points="284.03 352.63 410.62 270.27 405.47 226.53 284.03 352.63"/><polygon class="cls-82" points="210.04 252.94 250.85 347.01 249.69 242.37 210.04 252.94"/><polygon class="cls-83" points="181.17 175.69 253.34 213.32 297.14 291.56 181.17 175.69"/><polygon class="cls-84" points="250.85 185.1 297.14 291.56 253.34 213.32 250.85 185.1"/><polygon class="cls-36" points="302.61 217.78 250.85 185.1 297.14 291.56 302.61 217.78"/><polygon class="cls-35" points="215.76 297 210.04 252.94 250.85 347.01 215.76 297"/><polygon class="cls-85" points="297.14 291.56 250.85 347.01 248.86 242.54 297.14 291.56"/><polygon class="cls-35" points="2.49 225.7 47.33 317.09 132.06 348 2.49 225.7"/><polygon class="cls-86" points="3.48 392.57 132.06 348 47.78 316.31 3.48 392.57"/><polygon class="cls-87" points="0 392.82 144.84 396.03 132.61 346.62 0 392.82"/><polygon class="cls-88" points="628.15 137.74 661.47 142.52 571.05 83.59 628.15 137.74"/><polygon class="cls-89" points="661.47 245.51 562.92 230.65 557.45 154.4 661.47 245.51"/><polygon class="cls-16" points="541.77 126.59 661.47 245.51 557.45 154.4 541.77 126.59"/><polygon class="cls-90" points="628.78 137.4 614.18 165.13 541.6 126.59 628.78 137.4"/><polygon class="cls-68" points="661.47 245.51 628.78 137.4 614.18 165.13 661.47 245.51"/><polygon class="cls-91" points="541.6 126.59 614.18 165.13 661.47 245.51 541.6 126.59"/><polygon class="cls-92" points="402.82 207.38 410.62 270.27 456.91 145.65 402.82 207.38"/><polygon class="cls-27" points="456.91 145.65 410.62 270.27 488.76 205.07 456.91 145.65"/><polygon class="cls-93" points="660.64 245.34 732.97 325.56 691.58 222.73 660.64 245.34"/><polygon class="cls-94" points="691.58 222.73 732.97 325.56 764.16 287.43 691.58 222.73"/><polygon class="cls-95" points="628.78 137.4 691.58 222.73 661.97 141.78 628.78 137.4"/><polygon class="cls-96" points="661.97 141.78 691.58 222.73 721.03 213.98 661.97 141.78"/><polygon class="cls-16" points="661.3 141.64 715.6 144.62 721.03 213.98 661.3 141.64"/><polygon class="cls-75" points="557.45 154.4 562.92 230.65 488.76 205.07 557.45 154.4"/><polygon class="cls-97" points="488.76 205.07 497.72 262.51 562.92 230.65 488.76 205.07"/><polygon class="cls-75" points="562.92 230.65 686.35 362.36 600.25 340.75 562.92 230.65"/><polygon class="cls-71" points="562.92 230.65 732.97 325.56 660.64 245.34 562.92 230.65"/><polygon class="cls-98" points="732.97 325.56 686.35 362.36 562.92 230.65 732.97 325.56"/><polygon class="cls-99" points="285.19 351.47 410.62 270.27 362.34 342.56 285.19 351.47"/><polygon class="cls-100" points="416.09 319.78 410.62 270.27 361.84 342.06 416.09 319.78"/><polygon class="cls-101" points="410.62 270.27 416.09 319.78 499.71 260.86 410.62 270.27"/><path class="cls-102" d="M499.71,260.86s11.94,116.52,12.94,116.52-96.56-57.6-96.56-57.6Z"/><polygon class="cls-103" points="499.71 260.86 600.25 340.75 562.92 230.65 499.71 260.86"/><polygon class="cls-104" points="600.25 340.75 511.99 377.38 497.72 259.21 600.25 340.75"/><polygon class="cls-35" points="284.32 351.47 362.09 342.37 241.89 392.07 284.32 351.47"/><polygon class="cls-105" points="416.09 319.78 429.03 406.43 512.4 376.72 416.09 319.78"/><polygon class="cls-106" points="429.03 406.43 636.08 410.06 512.98 376.39 429.03 406.43"/><polygon class="cls-107" points="410.62 270.27 499.38 261.85 488.76 205.07 410.62 270.27"/><polygon class="cls-108" points="511.32 376.72 636.08 410.06 600.25 340.75 511.32 376.72"/><polygon class="cls-75" points="636.08 410.06 729.65 425.91 685.52 362.2 636.08 410.06"/><polygon class="cls-71" points="685.52 362.2 636.08 410.06 600.25 340.75 685.52 362.2"/><polygon class="cls-16" points="721.03 213.98 763.17 287.6 691.58 222.73 721.03 213.98"/><polygon class="cls-109" points="762.84 209.69 720.8 214.05 763.17 287.6 762.84 209.69"/><polygon class="cls-16" points="762.84 209.69 765.24 162.57 785.4 187.08 762.84 209.69"/><polygon class="cls-110" points="762.84 209.69 800 263.5 785.4 186.26 762.84 209.69"/><polygon class="cls-16" points="800 263.5 761.92 289.16 762.63 209.36 800 263.5"/><polygon class="cls-111" points="800 316.98 763.17 287.6 800 263.5 800 316.98"/><polygon class="cls-112" points="800 316.98 763.17 287.6 732.97 325.56 800 316.98"/><polygon class="cls-68" points="799.67 219.93 784.67 187.01 799.34 90.2 799.67 219.93"/><polygon class="cls-16" points="571.05 83.59 629.11 137.85 540.96 127.78 571.05 83.59"/><polygon class="cls-113" points="511.97 125.95 488.76 205.07 571.05 83.59 511.97 125.95"/><polygon class="cls-114" points="218.33 98.45 312.57 136.08 313.03 189.3 218.33 98.45"/></g></g></svg>