<svg xmlns="http://www.w3.org/2000/svg" viewBox="0 0 512.129 512.129"><path d="M256 .089C114.616.089 0 114.701 0 256.084c0 141.389 114.616 256.005 256 256.005s256-114.621 256-256.005C512 114.706 397.389.089 256 .089z" fill="#2ea9d3"/><path d="M263.347 248.962c-4.06-4.06-10.65-4.06-14.71 0-4.065 4.06-4.065 10.639 0 14.705l180.797 180.669c5.1-4.7 10.004-9.605 14.71-14.7L263.347 248.962z" fill="#2998bd"/><path d="M256 153.689c-56.556 0-102.4 45.844-102.4 102.4s45.844 102.4 102.4 102.4 102.4-45.845 102.4-102.4-45.844-102.4-102.4-102.4zm0 153.595c-28.273 0-51.2-22.922-51.2-51.2 0-28.273 22.927-51.2 51.2-51.2s51.2 22.927 51.2 51.2c0 28.278-22.922 51.2-51.2 51.2zm0-256c-113.111 0-204.8 91.694-204.8 204.8s91.689 204.8 204.8 204.8 204.8-91.694 204.8-204.8-91.689-204.8-204.8-204.8zm0 358.405c-84.828 0-153.6-68.772-153.6-153.6s68.772-153.6 153.6-153.6 153.6 68.772 153.6 153.6-68.767 153.6-153.6 153.6z" fill="#4abee5"/><path d="M462.725 49.344c20.332 20.291 64.512 9.098 44.18 29.399l-54.595 54.446c-20.127 20.127-53.299 20.285-73.631 0-20.337-20.291-20.337-53.192 0-73.487L433.27 5.255c20.336-20.295 9.124 23.798 29.455 44.089z" fill="#efc75e"/><path d="M371.61 357.153a154.378 154.378 0 0 1-14.715 14.694l36.301 36.275a205.425 205.425 0 0 0 14.715-14.694l-36.301-36.275zm-72.904-72.852a51.324 51.324 0 0 1-14.761 14.653l36.608 36.582a102.653 102.653 0 0 0 14.735-14.674l-36.582-36.561z" fill="#42abce"/><path d="M462.725 49.344c-5.612-5.596-8.817-13.01-10.947-20.378l-85.181 85.187c2.514 6.938 6.508 13.471 12.083 19.036 5.658 5.647 12.329 9.651 19.42 12.14l85.053-85.059c-7.387-2.13-14.816-5.325-20.428-10.926z" fill="#e3bd59"/><path d="M483.374 28.638c4.06 4.06 4.06 10.639 0 14.7L263.347 263.211c-4.06 4.06-10.65 4.06-14.71 0-4.065-4.055-4.065-10.639 0-14.705L468.659 28.638c4.06-4.065 10.65-4.065 14.715 0z" fill="#edeeef"/></svg>